<svg width="806" height="460" viewBox="0 0 806 460" fill="none" xmlns="http://www.w3.org/2000/svg">
<path fill-rule="evenodd" clip-rule="evenodd" d="M171.308 0C170.96 10.9447 161.367 19.7169 149.584 19.7169C137.801 19.7169 128.208 10.9447 127.86 0L108.655 0C108.297 10.9453 98.4218 19.7182 86.2919 19.7182C74.162 19.7182 64.2867 10.9453 63.9286 0L44.7348 0C44.379 10.9472 34.5027 19.7223 22.3713 19.7223C10.2399 19.7223 0.363647 10.9472 0.00782962 0L0 0L0 459.669H427.012V0L427.001 0C426.643 10.945 416.768 19.7176 404.638 19.7176C392.508 19.7176 382.633 10.945 382.275 0L363.081 0C362.722 10.9447 352.847 19.7169 340.717 19.7169C328.588 19.7169 318.713 10.9447 318.354 0L299.15 0C298.802 10.9453 289.209 19.7182 277.425 19.7182C265.642 19.7182 256.049 10.9453 255.701 0L235.23 0C234.883 10.9453 225.289 19.7182 213.506 19.7182C201.723 19.7182 192.13 10.9453 191.782 0L171.308 0Z" fill="#C4C4C4"/>
<path fill-rule="evenodd" clip-rule="evenodd" d="M550.299 0C549.95 10.9449 540.357 19.7174 528.574 19.7174C516.791 19.7174 507.198 10.9449 506.85 0L487.646 0C487.288 10.9455 477.412 19.7188 465.282 19.7188C453.152 19.7188 443.277 10.9455 442.919 0L423.722 0C423.367 10.9474 413.49 19.7228 401.359 19.7228C389.227 19.7228 379.351 10.9474 378.995 0L378.986 0V459.669H805.999V0L805.992 0C805.633 10.9452 795.758 19.7181 783.628 19.7181C771.498 19.7181 761.623 10.9452 761.265 0L742.067 0C741.708 10.9449 731.833 19.7174 719.704 19.7174C707.574 19.7174 697.699 10.9449 697.34 0L678.137 0C677.79 10.9455 668.196 19.7188 656.413 19.7188C644.629 19.7188 635.036 10.9455 634.688 0L614.218 0C613.87 10.9455 604.277 19.7188 592.494 19.7188C580.71 19.7188 571.117 10.9455 570.769 0L550.299 0Z" fill="#C4C4C4"/>
</svg>
