<svg width="1281" height="621" viewBox="0 0 1281 621" fill="none" xmlns="http://www.w3.org/2000/svg">
<path fill-rule="evenodd" clip-rule="evenodd" d="M505.97 0L475.449 0C474.896 14.7869 459.649 26.6391 440.921 26.6391C422.194 26.6391 406.947 14.7869 406.394 0L373.861 0C373.308 14.7869 358.062 26.6391 339.334 26.6391C320.606 26.6391 305.359 14.7869 304.807 0L272.267 0C271.714 14.7862 256.467 26.6376 237.74 26.6376C219.013 26.6376 203.767 14.7862 203.213 0L172.691 0C172.122 14.7872 156.427 26.6396 137.148 26.6396C117.87 26.6396 102.174 14.7872 101.606 0L71.0998 0C70.5347 14.7896 54.8379 26.6449 35.5568 26.6449C16.2757 26.6449 0.57885 14.7896 0.0137977 0L0 0L0 621H678.664V0L678.648 0C678.078 14.7867 662.383 26.6386 643.105 26.6386C623.826 26.6386 608.131 14.7867 607.562 0L577.056 0C576.486 14.7861 560.791 26.6374 541.513 26.6374C522.235 26.6374 506.541 14.7861 505.97 0Z" fill="#C4C4C4"/>
<path fill-rule="evenodd" clip-rule="evenodd" d="M1108.31 0L1077.79 0C1077.23 14.7868 1061.99 26.6389 1043.26 26.6389C1024.53 26.6389 1009.28 14.7868 1008.73 0L976.196 0C975.643 14.7868 960.396 26.6389 941.668 26.6389C922.941 26.6389 907.694 14.7868 907.141 0L874.608 0C874.054 14.7861 858.808 26.6374 840.081 26.6374C821.354 26.6374 806.108 14.7861 805.554 0L775.032 0C774.463 14.787 758.768 26.6394 739.489 26.6394C720.21 26.6394 704.515 14.787 703.946 0L673.436 0C672.87 14.7895 657.174 26.6447 637.893 26.6447C618.612 26.6447 602.915 14.7895 602.35 0L602.336 0V621H1281V0L1280.99 0C1280.42 14.7866 1264.72 26.6384 1245.45 26.6384C1226.17 26.6384 1210.47 14.7866 1209.9 0L1179.39 0C1178.82 14.786 1163.13 26.6372 1143.85 26.6372C1124.57 26.6372 1108.88 14.786 1108.31 0Z" fill="#C4C4C4"/>
</svg>
