<svg width="981" height="1194" viewBox="0 0 981 1194" fill="none" xmlns="http://www.w3.org/2000/svg">
<path fill-rule="evenodd" clip-rule="evenodd" d="M387.477 -5.30307e-07L364.102 -4.98317e-07C363.679 28.4305 352.003 51.2183 337.661 51.2183C323.32 51.2183 311.643 28.4305 311.22 -4.25941e-07L286.305 -3.91842e-07C285.881 28.4305 274.205 51.2183 259.864 51.2183C245.522 51.2183 233.846 28.4305 233.422 -3.19466e-07L208.504 -2.85362e-07C208.08 28.4296 196.404 51.2163 182.063 51.2163C167.722 51.2163 156.046 28.4296 155.622 -2.12987e-07L132.248 -1.80996e-07C131.812 28.431 119.792 51.2193 105.029 51.2193C90.265 51.2193 78.2454 28.431 77.8097 -1.06492e-07L54.4483 -7.45189e-08C54.0152 28.4355 41.9945 51.229 27.2292 51.229C12.4638 51.229 0.443227 28.4355 0.0101304 0L0 0L1.63413e-06 1194L519.726 1194L519.726 -7.11306e-07L519.713 -7.11289e-07C519.277 28.4298 507.258 51.2168 492.494 51.2168C477.731 51.2168 465.712 28.4298 465.276 -6.36785e-07L441.914 -6.04812e-07C441.478 28.4294 429.458 51.2159 414.695 51.2159C399.932 51.2159 387.913 28.4294 387.477 -5.30307e-07Z" fill="#C4C4C4"/>
<path fill-rule="evenodd" clip-rule="evenodd" d="M848.748 -5.30305e-07L825.376 -4.98317e-07C824.952 28.4305 813.276 51.2183 798.935 51.2183C784.593 51.2183 772.917 28.4305 772.494 -4.25941e-07L747.578 -3.91842e-07C747.155 28.4305 735.479 51.2183 721.137 51.2183C706.796 51.2183 695.12 28.4305 694.696 -3.19466e-07L669.781 -2.85367e-07C669.357 28.4296 657.681 51.2163 643.34 51.2163C628.998 51.2163 617.323 28.4296 616.899 -2.12991e-07L593.524 -1.81001e-07C593.089 28.431 581.069 51.2193 566.305 51.2193C551.542 51.2193 539.522 28.431 539.087 -1.06496e-07L515.722 -7.45189e-08C515.289 28.4355 503.268 51.229 488.503 51.229C473.737 51.229 461.717 28.4355 461.284 0L461.273 0L461.273 1194L980.999 1194L980.999 -7.11306e-07L980.99 -7.11294e-07C980.554 28.4298 968.535 51.2168 953.771 51.2168C939.008 51.2168 926.989 28.4298 926.552 -6.36789e-07L903.186 -6.0481e-07C902.75 28.4294 890.73 51.2159 875.967 51.2159C861.204 51.2159 849.185 28.4294 848.748 -5.30305e-07Z" fill="#C4C4C4"/>
</svg>
