<svg width="189" height="107" viewBox="0 0 189 107" fill="none" xmlns="http://www.w3.org/2000/svg">
<path d="M0 57.2579C63.7241 -26.604 137.586 -10.6303 189 55.4427C146.638 123.331 56.8448 124.42 0 57.2579ZM134.69 40.195C128.535 72.5054 117.672 85.5748 95.5863 84.8487C87.6208 84.4857 77.4828 82.3075 72.7759 77.225C64.4483 67.423 59.3794 54.7165 52.138 41.2841C43.8104 44.9145 32.9483 49.9971 21.0001 55.0796C68.7932 102.638 125.276 102.275 167.276 54.3535C156.414 49.634 145.914 44.9145 134.69 40.195ZM90.8793 47.4558C91.2414 45.2776 91.6035 43.0994 91.9656 40.9211C85.0863 39.832 77.8448 38.7428 70.9655 37.6537C70.6035 44.9145 67.7069 52.9014 69.8794 59.0731C74.5863 71.4164 85.0862 77.951 98.4828 76.1358C112.603 74.3206 121.655 65.2447 122.741 51.0862C123.104 46.0036 118.034 40.5581 115.862 35.1125C114.414 35.8386 112.603 36.5647 111.155 37.2908C115.5 49.9971 114.052 60.8882 100.293 65.2447C88.7069 68.875 80.7414 62.7035 77.1207 49.9971C82.1897 49.271 86.5345 48.1819 90.8793 47.4558ZM147 35.4756C115.862 6.06945 77.1207 6.06945 42.7242 35.4756C78.9311 22.4062 111.517 22.4062 147 35.4756Z" fill="#C4C4C4"/>
</svg>
