<svg width="93" height="158" viewBox="0 0 93 158" fill="none" xmlns="http://www.w3.org/2000/svg">
<path d="M56.8258 80.7757C50.5714 65.3985 30.4558 64.8915 26.568 48.1624C48.881 48.1624 70.5179 48.1624 93 48.1624C89.4502 64.7225 69.3346 65.5674 62.9112 79.9308C73.8987 83.3104 84.3791 87.028 83.5339 100.715C82.8577 113.22 73.5606 117.276 62.5731 119.979C62.235 125.556 62.066 130.963 61.5589 138.06C66.461 135.864 69.5037 134.512 72.5464 133.16C72.8845 133.498 73.0535 133.836 73.3916 134.174C70.0108 136.877 66.461 139.75 61.2208 143.806C65.6158 148.706 70.1798 153.438 74.4058 158C65.2777 158 54.9664 158 44.8241 158C48.881 153.775 53.445 149.044 58.5162 143.806C53.9522 140.764 50.5714 139.243 48.0358 136.708C42.1195 130.794 42.4576 120.317 49.5572 116.093C55.1354 112.713 56.3187 108.996 55.4735 103.25C54.7974 98.8567 55.3045 94.2942 55.3045 89.7317C48.712 88.3799 41.4433 87.535 34.5128 85.5072C9.15702 77.7341 -4.87315 53.0629 1.5503 28.8986C8.98799 0.84776 45.3312 -9.62906 66.63 10.3107C74.0677 17.2389 80.1531 24.3361 77.1104 36.1648C69.6727 33.799 64.0945 29.4055 63.2493 22.6463C61.897 12.5074 55.4735 9.46578 47.1906 8.45189C35.358 6.93106 24.5395 10.3107 17.2709 20.2806C9.32606 31.2643 8.64991 43.431 14.2282 55.5976C22.511 72.6646 37.3864 79.0859 56.8258 80.7757ZM64.2635 89.5627C64.2635 96.9979 64.2635 104.264 64.2635 112.206C71.8702 110.685 76.6033 106.968 76.2652 99.8706C75.9271 92.7734 70.856 89.9007 64.2635 89.5627ZM57.1639 118.796C48.2049 126.739 48.712 131.132 58.0091 136.201C57.671 130.625 57.502 125.556 57.1639 118.796Z" fill="#C4C4C4"/>
</svg>
