<svg width="174" height="173" viewBox="0 0 174 173" fill="none" xmlns="http://www.w3.org/2000/svg">
<path d="M0 125.138C29.1799 82.9805 57.597 41.9671 86.5861 0C115.575 41.9671 144.183 83.1712 173.363 125.138C115.385 125.138 58.5505 125.138 0 125.138ZM14.6853 117.508C63.3185 117.508 110.235 117.508 158.487 117.508C134.266 82.4082 110.617 48.453 86.5861 13.5439C62.5556 48.6437 39.0973 82.4082 14.6853 117.508Z" fill="#C4C4C4"/>
<path d="M134.074 57.9911C134.456 55.702 134.265 52.0776 135.6 51.1238C146.089 44.4472 156.96 38.3429 168.404 33.1924C157.914 41.5858 147.615 49.9792 137.126 58.5634C135.981 58.3727 135.028 58.1819 134.074 57.9911Z" fill="#C4C4C4"/>
<path d="M85.8237 172.828C84.8701 159.666 83.9165 146.313 82.9629 133.15C83.7258 132.387 84.4887 131.815 85.4423 131.052C86.968 132.959 89.8288 135.058 89.8288 136.965C89.4474 148.983 88.3031 161.001 87.3495 172.828C86.7773 173.019 86.3959 173.019 85.8237 172.828Z" fill="#C4C4C4"/>
<path d="M41.004 52.8404C39.2875 55.5111 37.9525 57.0372 36.6175 59.1355C26.5094 50.9329 16.9734 43.3025 7.4375 35.6721C7.81894 35.0998 8.00966 34.7183 8.39109 34.146C18.8806 40.0595 29.3701 46.1639 41.004 52.8404Z" fill="#C4C4C4"/>
<path d="M104.514 133.15C103.56 142.116 102.797 150.891 101.844 159.856C101.271 159.856 100.509 159.856 99.9364 159.856C98.9828 151.654 97.8385 143.451 97.457 135.058C97.457 133.722 100.89 132.387 102.606 131.052C103.179 131.624 103.942 132.387 104.514 133.15Z" fill="#C4C4C4"/>
<path d="M70.7573 160.62C69.8037 151.272 69.0408 142.116 67.8965 130.479C71.3294 132.387 74.9531 133.532 74.9531 134.485C74.3809 143.26 73.2366 152.035 72.283 160.81C71.9016 160.81 71.3294 160.62 70.7573 160.62Z" fill="#C4C4C4"/>
<path d="M22.6945 26.7065C31.0861 31.2848 39.6685 36.0538 48.823 41.0135C47.4879 43.3026 46.1529 45.2102 44.8179 47.3086C36.8077 40.632 29.3697 34.1462 21.9316 27.8511C22.1224 27.6603 22.3131 27.2788 22.6945 26.7065Z" fill="#C4C4C4"/>
<path d="M151.049 28.0415C143.611 34.3366 136.173 40.6317 128.353 47.3083C126.828 45.2099 125.683 43.6838 123.967 41.3947C133.121 36.2442 141.704 31.4752 150.286 26.897C150.477 27.2785 150.858 27.66 151.049 28.0415Z" fill="#C4C4C4"/>
<path d="M6.86442 51.3145C15.0653 55.7019 23.2662 60.0894 32.0392 65.0492C31.0856 66.9568 30.132 68.6736 28.6063 71.535C20.7868 65.0492 13.5396 58.9448 6.10156 52.8405C6.29228 52.2683 6.67371 51.696 6.86442 51.3145Z" fill="#C4C4C4"/>
<path d="M167.069 52.459C160.966 57.8003 155.054 63.1416 148.569 68.1013C147.044 69.2459 143.992 68.4828 141.513 68.6736C141.322 67.529 141.131 66.3845 140.75 65.2399C149.142 60.6617 157.724 55.8927 166.115 51.3145C166.497 51.5052 166.878 52.0775 167.069 52.459Z" fill="#C4C4C4"/>
<path d="M7.62891 69.2456C12.7783 71.7255 18.1184 74.2054 23.2678 76.6852C19.6442 83.7433 19.6442 83.7433 7.62891 69.2456Z" fill="#C4C4C4"/>
<path d="M56.8338 29.7586C55.3081 31.857 54.1638 33.5738 52.4473 35.8629C48.4422 30.7124 45.0093 26.1342 42.7207 23.082C45.5815 24.6081 50.9216 27.088 56.8338 29.7586Z" fill="#C4C4C4"/>
<path d="M153.336 82.7895C151.81 80.6912 150.475 79.1651 148.949 77.0668C154.861 74.2054 160.202 71.7255 165.542 69.2456C165.923 69.6271 166.114 70.0086 166.495 70.3902C162.109 74.3961 157.913 78.4021 153.336 82.7895Z" fill="#C4C4C4"/>
<path d="M131.787 85.4604C106.803 116.936 68.2777 116.936 42.9121 86.0327C63.1283 50.7421 105.658 50.1698 131.787 85.4604ZM53.0202 84.5066C72.4735 106.444 101.272 108.542 121.297 84.3158C116.339 82.2175 111.38 80.1191 106.421 78.0207C102.607 93.663 97.2669 99.1951 86.9681 99.0043C77.0507 98.8136 72.2827 93.2815 68.6591 78.0207C63.319 80.1191 58.3603 82.4082 53.0202 84.5066ZM79.1486 74.7778C72.8549 81.6452 73.4271 87.9403 79.7208 92.5185C85.8238 97.0967 94.5968 95.5706 98.6019 88.7033C101.463 84.1251 102.607 79.3561 96.1225 75.9224C96.8854 83.1713 96.3132 89.6571 87.5402 89.8478C78.3857 89.8478 78.9579 82.599 79.1486 74.7778ZM66.9426 72.4887C80.1022 72.4887 94.5968 72.4887 107.947 72.4887C94.4061 61.9969 80.2929 61.9969 66.9426 72.4887Z" fill="#C4C4C4"/>
</svg>
