<svg width="1440" height="897" viewBox="0 0 1440 897" fill="none" xmlns="http://www.w3.org/2000/svg">
<line x1="720.771" y1="4.37114e-08" x2="720.771" y2="897" stroke="#C4C4C4" stroke-opacity="0.5" stroke-width="2"/>
<line x1="810.715" y1="4.50146e-08" x2="810.715" y2="897" stroke="#C4C4C4" stroke-opacity="0.5" stroke-width="2"/>
<line x1="1171.17" y1="4.37114e-08" x2="1171.17" y2="889.489" stroke="#C4C4C4" stroke-opacity="0.5" stroke-width="2"/>
<line x1="900.658" y1="4.50146e-08" x2="900.658" y2="897" stroke="#C4C4C4" stroke-opacity="0.5" stroke-width="2"/>
<line x1="1261.11" y1="4.507e-08" x2="1261.11" y2="889.489" stroke="#C4C4C4" stroke-opacity="0.5" stroke-width="2"/>
<line x1="990.6" y1="4.46443e-08" x2="990.6" y2="887.668" stroke="#C4C4C4" stroke-opacity="0.5" stroke-width="2"/>
<line x1="1351.06" y1="4.507e-08" x2="1351.06" y2="889.489" stroke="#C4C4C4" stroke-opacity="0.5" stroke-width="2"/>
<line x1="1171.17" y1="9.33203" x2="1171.17" y2="897" stroke="#C4C4C4" stroke-opacity="0.5" stroke-width="2"/>
<line x1="1080.77" y1="4.46443e-08" x2="1080.77" y2="887.668" stroke="#C4C4C4" stroke-opacity="0.5" stroke-width="2"/>
<line y1="88.6211" x2="1440" y2="88.6211" stroke="#C4C4C4" stroke-opacity="0.5" stroke-width="2"/>
<line x1="630.828" y1="4.50146e-08" x2="630.828" y2="897" stroke="#C4C4C4" stroke-opacity="0.5" stroke-width="2"/>
<line y1="178.312" x2="1440" y2="178.312" stroke="#C4C4C4" stroke-opacity="0.5" stroke-width="2"/>
<line x1="540.887" y1="4.46818e-08" x2="540.887" y2="897" stroke="#C4C4C4" stroke-opacity="0.5" stroke-width="2"/>
<line y1="268.003" x2="1440" y2="268.003" stroke="#C4C4C4" stroke-opacity="0.5" stroke-width="2"/>
<line x1="450.941" y1="4.46818e-08" x2="450.941" y2="897" stroke="#C4C4C4" stroke-opacity="0.5" stroke-width="2"/>
<line y1="357.694" x2="1440" y2="357.694" stroke="#C4C4C4" stroke-opacity="0.5" stroke-width="2"/>
<line x1="360.771" y1="4.46818e-08" x2="360.771" y2="897" stroke="#C4C4C4" stroke-opacity="0.5" stroke-width="2"/>
<line y1="447.615" x2="1440" y2="447.615" stroke="#C4C4C4" stroke-opacity="0.5" stroke-width="2"/>
<line x1="270.828" y1="4.46818e-08" x2="270.828" y2="897" stroke="#C4C4C4" stroke-opacity="0.5" stroke-width="2"/>
<line y1="537.306" x2="1440" y2="537.306" stroke="#C4C4C4" stroke-opacity="0.5" stroke-width="2"/>
<line y1="716.646" x2="1421.51" y2="716.646" stroke="#C4C4C4" stroke-opacity="0.5" stroke-width="2"/>
<line x1="180.887" y1="4.46818e-08" x2="180.887" y2="897" stroke="#C4C4C4" stroke-opacity="0.5" stroke-width="2"/>
<line y1="626.997" x2="1440" y2="626.997" stroke="#C4C4C4" stroke-opacity="0.5" stroke-width="2"/>
<line y1="806.379" x2="1440" y2="806.379" stroke="#C4C4C4" stroke-opacity="0.5" stroke-width="2"/>
<line x1="90.9414" y1="4.46818e-08" x2="90.9414" y2="897" stroke="#C4C4C4" stroke-opacity="0.5" stroke-width="2"/>
<line y1="716.688" x2="1440" y2="716.688" stroke="#C4C4C4" stroke-opacity="0.5" stroke-width="2"/>
<line y1="896" x2="1421.51" y2="896" stroke="#C4C4C4" stroke-opacity="0.5" stroke-width="2"/>
<line x1="1" y1="4.37114e-08" x2="0.999969" y2="717.646" stroke="#C4C4C4" stroke-opacity="0.5" stroke-width="2"/>
</svg>
