<svg width="1440" height="1739" viewBox="0 0 1440 1739" fill="none" xmlns="http://www.w3.org/2000/svg">
<mask id="mask0_578:6341" style="mask-type:alpha" maskUnits="userSpaceOnUse" x="0" y="0" width="1440" height="1739">
<rect width="1440" height="1739" fill="#292929"/>
</mask>
<g mask="url(#mask0_578:6341)">
<line x1="720.771" y1="4.37114e-08" x2="720.771" y2="1032.66" stroke="#A4A4A4" stroke-opacity="0.5" stroke-width="2"/>
<line x1="810.715" y1="4.50146e-08" x2="810.715" y2="1032.66" stroke="#A4A4A4" stroke-opacity="0.5" stroke-width="2"/>
<line x1="1171.17" y1="4.37114e-08" x2="1171.17" y2="1024.01" stroke="#A4A4A4" stroke-opacity="0.5" stroke-width="2"/>
<line x1="900.658" y1="4.50146e-08" x2="900.658" y2="1032.66" stroke="#A4A4A4" stroke-opacity="0.5" stroke-width="2"/>
<line x1="1261.11" y1="4.507e-08" x2="1261.11" y2="1024.01" stroke="#A4A4A4" stroke-opacity="0.5" stroke-width="2"/>
<line x1="990.6" y1="4.46443e-08" x2="990.6" y2="1021.91" stroke="#A4A4A4" stroke-opacity="0.5" stroke-width="2"/>
<line x1="1351.06" y1="4.507e-08" x2="1351.06" y2="1024.01" stroke="#A4A4A4" stroke-opacity="0.5" stroke-width="2"/>
<line x1="1171.17" y1="10.7432" x2="1171.17" y2="1032.66" stroke="#A4A4A4" stroke-opacity="0.5" stroke-width="2"/>
<line x1="1080.77" y1="4.46443e-08" x2="1080.77" y2="1021.91" stroke="#A4A4A4" stroke-opacity="0.5" stroke-width="2"/>
<line y1="102.175" x2="1440" y2="102.175" stroke="#A4A4A4" stroke-opacity="0.5" stroke-width="2"/>
<line x1="630.828" y1="4.50146e-08" x2="630.828" y2="1032.66" stroke="#A4A4A4" stroke-opacity="0.5" stroke-width="2"/>
<line y1="205.43" x2="1440" y2="205.43" stroke="#A4A4A4" stroke-opacity="0.5" stroke-width="2"/>
<line x1="540.887" y1="4.46818e-08" x2="540.887" y2="1032.66" stroke="#A4A4A4" stroke-opacity="0.5" stroke-width="2"/>
<line y1="308.686" x2="1440" y2="308.686" stroke="#A4A4A4" stroke-opacity="0.5" stroke-width="2"/>
<line x1="450.941" y1="4.46818e-08" x2="450.941" y2="1032.66" stroke="#A4A4A4" stroke-opacity="0.5" stroke-width="2"/>
<line y1="411.94" x2="1440" y2="411.94" stroke="#A4A4A4" stroke-opacity="0.5" stroke-width="2"/>
<line x1="360.771" y1="4.46818e-08" x2="360.771" y2="1032.66" stroke="#A4A4A4" stroke-opacity="0.5" stroke-width="2"/>
<line y1="515.461" x2="1440" y2="515.461" stroke="#A4A4A4" stroke-opacity="0.5" stroke-width="2"/>
<line x1="270.828" y1="4.46818e-08" x2="270.828" y2="1032.66" stroke="#A4A4A4" stroke-opacity="0.5" stroke-width="2"/>
<line y1="618.717" x2="1440" y2="618.717" stroke="#A4A4A4" stroke-opacity="0.5" stroke-width="2"/>
<line y1="825.178" x2="1421.51" y2="825.178" stroke="#A4A4A4" stroke-opacity="0.5" stroke-width="2"/>
<line x1="180.887" y1="4.46818e-08" x2="180.887" y2="1032.66" stroke="#A4A4A4" stroke-opacity="0.5" stroke-width="2"/>
<line y1="721.972" x2="1440" y2="721.972" stroke="#A4A4A4" stroke-opacity="0.5" stroke-width="2"/>
<line y1="928.483" x2="1440" y2="928.483" stroke="#A4A4A4" stroke-opacity="0.5" stroke-width="2"/>
<line x1="90.9414" y1="4.46818e-08" x2="90.9414" y2="1032.66" stroke="#A4A4A4" stroke-opacity="0.5" stroke-width="2"/>
<line y1="825.228" x2="1440" y2="825.228" stroke="#A4A4A4" stroke-opacity="0.5" stroke-width="2"/>
<line y1="1031.66" x2="1421.51" y2="1031.66" stroke="#A4A4A4" stroke-opacity="0.5" stroke-width="2"/>
<line x1="1" y1="4.37114e-08" x2="0.999964" y2="826.178" stroke="#A4A4A4" stroke-opacity="0.5" stroke-width="2"/>
<line x1="720.771" y1="1019" x2="720.771" y2="1918.66" stroke="#A4A4A4" stroke-opacity="0.5" stroke-width="2"/>
<line x1="810.715" y1="1019" x2="810.715" y2="1918.66" stroke="#A4A4A4" stroke-opacity="0.5" stroke-width="2"/>
<line x1="1171.17" y1="1019" x2="1171.17" y2="1911.12" stroke="#A4A4A4" stroke-opacity="0.5" stroke-width="2"/>
<line x1="900.658" y1="1019" x2="900.658" y2="1918.66" stroke="#A4A4A4" stroke-opacity="0.5" stroke-width="2"/>
<line x1="1261.11" y1="1019" x2="1261.11" y2="1911.12" stroke="#A4A4A4" stroke-opacity="0.5" stroke-width="2"/>
<line x1="990.6" y1="1019" x2="990.6" y2="1909.3" stroke="#A4A4A4" stroke-opacity="0.5" stroke-width="2"/>
<line x1="1351.06" y1="1019" x2="1351.06" y2="1911.12" stroke="#A4A4A4" stroke-opacity="0.5" stroke-width="2"/>
<line x1="1171.17" y1="1028.36" x2="1171.17" y2="1918.66" stroke="#A4A4A4" stroke-opacity="0.5" stroke-width="2"/>
<line x1="1080.77" y1="1019" x2="1080.77" y2="1909.3" stroke="#A4A4A4" stroke-opacity="0.5" stroke-width="2"/>
<line y1="1107.89" x2="1440" y2="1107.89" stroke="#A4A4A4" stroke-opacity="0.5" stroke-width="2"/>
<line x1="630.828" y1="1019" x2="630.828" y2="1918.66" stroke="#A4A4A4" stroke-opacity="0.5" stroke-width="2"/>
<line y1="1197.84" x2="1440" y2="1197.84" stroke="#A4A4A4" stroke-opacity="0.5" stroke-width="2"/>
<line x1="540.887" y1="1019" x2="540.887" y2="1918.66" stroke="#A4A4A4" stroke-opacity="0.5" stroke-width="2"/>
<line y1="1287.8" x2="1440" y2="1287.8" stroke="#A4A4A4" stroke-opacity="0.5" stroke-width="2"/>
<line x1="450.941" y1="1019" x2="450.941" y2="1918.66" stroke="#A4A4A4" stroke-opacity="0.5" stroke-width="2"/>
<line y1="1377.76" x2="1440" y2="1377.76" stroke="#A4A4A4" stroke-opacity="0.5" stroke-width="2"/>
<line x1="360.771" y1="1019" x2="360.771" y2="1918.66" stroke="#A4A4A4" stroke-opacity="0.5" stroke-width="2"/>
<line y1="1467.94" x2="1440" y2="1467.94" stroke="#A4A4A4" stroke-opacity="0.5" stroke-width="2"/>
<line x1="270.828" y1="1019" x2="270.828" y2="1918.66" stroke="#A4A4A4" stroke-opacity="0.5" stroke-width="2"/>
<line y1="1557.9" x2="1440" y2="1557.9" stroke="#A4A4A4" stroke-opacity="0.5" stroke-width="2"/>
<line y1="1737.77" x2="1421.51" y2="1737.77" stroke="#A4A4A4" stroke-opacity="0.5" stroke-width="2"/>
<line x1="180.887" y1="1019" x2="180.887" y2="1918.66" stroke="#A4A4A4" stroke-opacity="0.5" stroke-width="2"/>
<line y1="1647.86" x2="1440" y2="1647.86" stroke="#A4A4A4" stroke-opacity="0.5" stroke-width="2"/>
<line x1="90.9414" y1="1019" x2="90.9414" y2="1918.66" stroke="#A4A4A4" stroke-opacity="0.5" stroke-width="2"/>
<line y1="1737.81" x2="1440" y2="1737.81" stroke="#A4A4A4" stroke-opacity="0.5" stroke-width="2"/>
<line x1="1" y1="1019" x2="0.999969" y2="1738.77" stroke="#A4A4A4" stroke-opacity="0.5" stroke-width="2"/>
</g>
</svg>
