<svg width="1439" height="880" viewBox="0 0 1439 880" fill="none" xmlns="http://www.w3.org/2000/svg">
<line x1="719.271" y1="4.38026e-08" x2="719.271" y2="880" stroke="#A4A4A4" stroke-opacity="0.5" stroke-width="2"/>
<line x1="809.027" y1="4.51085e-08" x2="809.027" y2="880" stroke="#A4A4A4" stroke-opacity="0.5" stroke-width="2"/>
<line x1="1168.73" y1="4.38026e-08" x2="1168.73" y2="872.631" stroke="#A4A4A4" stroke-opacity="0.5" stroke-width="2"/>
<line x1="898.783" y1="4.51085e-08" x2="898.783" y2="880" stroke="#A4A4A4" stroke-opacity="0.5" stroke-width="2"/>
<line x1="1258.49" y1="4.51641e-08" x2="1258.49" y2="872.631" stroke="#A4A4A4" stroke-opacity="0.5" stroke-width="2"/>
<line x1="988.537" y1="4.47375e-08" x2="988.537" y2="870.845" stroke="#A4A4A4" stroke-opacity="0.5" stroke-width="2"/>
<line x1="1348.25" y1="4.51641e-08" x2="1348.25" y2="872.631" stroke="#A4A4A4" stroke-opacity="0.5" stroke-width="2"/>
<line x1="1168.73" y1="9.15527" x2="1168.73" y2="880" stroke="#A4A4A4" stroke-opacity="0.5" stroke-width="2"/>
<line x1="1078.52" y1="4.47375e-08" x2="1078.52" y2="870.845" stroke="#A4A4A4" stroke-opacity="0.5" stroke-width="2"/>
<line x1="1438" y1="4.51641e-08" x2="1438" y2="872.631" stroke="#A4A4A4" stroke-opacity="0.5" stroke-width="2"/>
<line y1="86.9229" x2="1437" y2="86.9229" stroke="#A4A4A4" stroke-opacity="0.5" stroke-width="2"/>
<line x1="629.516" y1="4.51085e-08" x2="629.516" y2="880" stroke="#A4A4A4" stroke-opacity="0.5" stroke-width="2"/>
<line y1="174.914" x2="1437" y2="174.914" stroke="#A4A4A4" stroke-opacity="0.5" stroke-width="2"/>
<line x1="539.762" y1="4.47751e-08" x2="539.762" y2="880" stroke="#A4A4A4" stroke-opacity="0.5" stroke-width="2"/>
<line y1="262.904" x2="1437" y2="262.904" stroke="#A4A4A4" stroke-opacity="0.5" stroke-width="2"/>
<line x1="450.004" y1="4.47751e-08" x2="450.004" y2="880" stroke="#A4A4A4" stroke-opacity="0.5" stroke-width="2"/>
<line y1="350.896" x2="1437" y2="350.896" stroke="#A4A4A4" stroke-opacity="0.5" stroke-width="2"/>
<line x1="360.021" y1="4.47751e-08" x2="360.021" y2="880" stroke="#A4A4A4" stroke-opacity="0.5" stroke-width="2"/>
<line y1="439.113" x2="1437" y2="439.113" stroke="#A4A4A4" stroke-opacity="0.5" stroke-width="2"/>
<line x1="270.266" y1="4.47751e-08" x2="270.266" y2="880" stroke="#A4A4A4" stroke-opacity="0.5" stroke-width="2"/>
<line y1="527.104" x2="1437" y2="527.104" stroke="#A4A4A4" stroke-opacity="0.5" stroke-width="2"/>
<line y1="703.045" x2="1418.55" y2="703.045" stroke="#A4A4A4" stroke-opacity="0.5" stroke-width="2"/>
<line x1="180.512" y1="4.47751e-08" x2="180.512" y2="880" stroke="#A4A4A4" stroke-opacity="0.5" stroke-width="2"/>
<line y1="615.096" x2="1437" y2="615.096" stroke="#A4A4A4" stroke-opacity="0.5" stroke-width="2"/>
<line y1="791.077" x2="1437" y2="791.077" stroke="#A4A4A4" stroke-opacity="0.5" stroke-width="2"/>
<line x1="90.7539" y1="4.47751e-08" x2="90.7539" y2="880" stroke="#A4A4A4" stroke-opacity="0.5" stroke-width="2"/>
<line y1="703.087" x2="1437" y2="703.087" stroke="#A4A4A4" stroke-opacity="0.5" stroke-width="2"/>
<line y1="879" x2="1418.55" y2="879" stroke="#A4A4A4" stroke-opacity="0.5" stroke-width="2"/>
<line x1="1" y1="4.37114e-08" x2="0.999969" y2="704.045" stroke="#A4A4A4" stroke-opacity="0.5" stroke-width="2"/>
</svg>
