<svg width="426" height="504" viewBox="0 0 426 504" fill="none" xmlns="http://www.w3.org/2000/svg">
<rect x="0.75" y="0.75" width="424.5" height="502.5" fill="#9A2EA9" stroke="#9A2EA9" stroke-width="1.5"/>
<rect x="0.75" y="81.75" width="424.5" height="421.5" fill="#17031A" stroke="#9A2EA9" stroke-width="1.5"/>
<rect x="31.75" y="101.75" width="362.5" height="199.5" fill="#17031A" stroke="#9A2EA9" stroke-width="1.5"/>
<rect x="46.75" y="116.75" width="332.5" height="169.5" fill="#17031A" stroke="#9A2EA9" stroke-width="1.5"/>
<rect x="63.75" y="132.75" width="297.5" height="137.5" fill="#17031A" stroke="#9A2EA9" stroke-width="1.5"/>
<rect x="81.75" y="146.75" width="262.5" height="110.5" fill="#17031A" stroke="#9A2EA9" stroke-width="1.5"/>
<rect x="99.75" y="161.75" width="226.5" height="80.5" fill="#17031A" stroke="#9A2EA9" stroke-width="1.5"/>
<path d="M54.832 32H36.496V35.936C36.448 44.24 36.016 51.2 30.88 51.2V56C40.432 56 41.296 45.92 41.344 36.8H50.032V56H54.832V32ZM93.3573 32H87.5493L80.9733 41.648H78.5253V32H73.7253V41.648H72.0453L65.4693 32H59.6613L67.8693 44.048L59.6613 56H65.4693L72.0453 46.448H73.7253V56H78.5253V46.448H80.9733L87.5493 56H93.3573L85.1493 44.048L93.3573 32ZM113.997 32L103.245 46.784H102.477V32H97.6769V56H102.477L113.229 41.216H113.997V56H118.797V32H113.997ZM137.688 43.568V42.8C141.48 42.416 142.728 40.544 142.728 38.24C142.728 34.544 140.76 32 135.72 32H124.536V56H135.72C141.432 56 143.448 53.072 143.448 49.376C143.448 45.728 141.96 43.952 137.688 43.568ZM129.336 36.8H135.192C137.4 36.8 137.928 37.232 137.928 38.864C137.928 40.496 137.4 40.928 135.192 40.928H129.336V36.8ZM134.904 51.2H129.336V45.728H134.904C137.832 45.728 138.648 46.448 138.648 48.464C138.648 50.48 137.832 51.2 134.904 51.2ZM167.839 51.2V32H150.559V36.8H163.039V42.08C161.599 40.64 159.727 39.68 156.367 39.68C150.511 39.68 147.775 43.424 147.775 47.84C147.775 52.256 150.511 56 156.367 56C159.727 56 161.599 55.04 163.039 53.6V56H170.719V51.2H167.839ZM157.807 51.2C154.303 51.2 152.575 50.48 152.575 47.84C152.575 45.2 154.303 44.48 157.807 44.48C161.311 44.48 163.039 45.2 163.039 47.84C163.039 50.48 161.311 51.2 157.807 51.2ZM186.301 32C177.853 32 175.501 34.16 175.501 39.104C175.501 43.904 177.853 44.768 182.653 45.296V46.064H175.021V56H179.821V48.176H190.333V56H195.133V32H186.301ZM190.333 43.376H186.301C181.693 43.376 180.301 42.944 180.301 40.064C180.301 37.04 181.693 36.8 186.301 36.8H190.333V43.376ZM241.16 32H222.824V35.936C222.776 44.24 222.344 51.2 217.208 51.2V56C226.76 56 227.624 45.92 227.672 36.8H236.36V56H241.16V32ZM256.981 56C264.277 56 268.453 51.056 268.453 44C268.453 36.944 264.277 32 256.981 32C249.685 32 245.509 36.944 245.509 44C245.509 51.056 249.685 56 256.981 56ZM256.981 51.2C252.037 51.2 250.309 49.76 250.309 44C250.309 38.24 252.037 36.8 256.981 36.8C261.925 36.8 263.653 38.24 263.653 44C263.653 49.76 261.925 51.2 256.981 51.2ZM307.435 32H301.627L295.051 41.648H292.603V32H287.803V41.648H286.123L279.547 32H273.739L281.947 44.048L273.739 56H279.547L286.123 46.448H287.803V56H292.603V46.448H295.051L301.627 56H307.435L299.227 44.048L307.435 32ZM322.027 39.584H316.555V32H311.755V56H322.027C328.507 56 330.811 52.064 330.811 47.792C330.811 43.52 328.507 39.584 322.027 39.584ZM321.259 51.2H316.555V44.384H321.259C324.571 44.384 326.011 44.624 326.011 47.792C326.011 50.96 324.571 51.2 321.259 51.2Z" fill="#17031A"/>
<path d="M38.056 335C36.256 335 34.12 335.888 33.4 337.64C33.448 333.488 35.104 331.64 38.776 331.64C40.216 331.64 41.152 331.64 42.232 331.112V330.2C40.84 330.68 40.168 330.68 38.776 330.68C33.832 330.68 32.44 333.824 32.44 337.88V339.8C32.44 343.784 33.856 347 38.056 347C42.304 347 43.672 344.528 43.672 341C43.672 337.472 42.304 335 38.056 335ZM38.056 346.04C35.704 346.04 33.4 344.6 33.4 340.76C33.4 337.4 35.704 335.96 38.056 335.96C40.408 335.96 42.712 336.608 42.712 341C42.712 345.392 40.408 346.04 38.056 346.04ZM57.0966 335H49.1286V335.96C49.1526 340.904 49.2006 346.04 46.0806 346.04V347C50.2326 347 50.1366 340.832 50.0886 335.96H56.1366V347H57.0966V335ZM69.0567 346.04V335H61.1367V335.96H68.0967V340.52C67.6167 339.488 66.0807 338.6 64.1607 338.6C60.9927 338.6 59.5047 340.472 59.5047 342.8C59.5047 345.128 60.9927 347 64.1607 347C66.0807 347 67.6167 346.112 68.0967 345.08V347H70.9767V346.04H69.0567ZM64.1607 346.04C61.9287 346.04 60.4647 344.96 60.4647 342.8C60.4647 340.64 61.9287 339.56 64.1607 339.56C66.3927 339.56 68.0967 340.64 68.0967 342.8C68.0967 344.96 66.3927 346.04 64.1607 346.04ZM88.5872 335C86.7873 335 84.6513 335.888 83.9313 337.64C83.9793 333.488 85.6353 331.64 89.3073 331.64C90.7473 331.64 91.6833 331.64 92.7633 331.112V330.2C91.3713 330.68 90.6993 330.68 89.3073 330.68C84.3633 330.68 82.9713 333.824 82.9713 337.88V339.8C82.9713 343.784 84.3873 347 88.5872 347C92.8353 347 94.2032 344.528 94.2032 341C94.2032 337.472 92.8353 335 88.5872 335ZM88.5872 346.04C86.2353 346.04 83.9313 344.6 83.9313 340.76C83.9313 337.4 86.2353 335.96 88.5872 335.96C90.9393 335.96 93.2433 336.608 93.2433 341C93.2433 345.392 90.9393 346.04 88.5872 346.04ZM107.628 335H99.6599V335.96C99.6839 340.904 99.7319 346.04 96.6119 346.04V347C100.764 347 100.668 340.832 100.62 335.96H106.668V347H107.628V335ZM119.588 346.04V335H111.668V335.96H118.628V340.52C118.148 339.488 116.612 338.6 114.692 338.6C111.524 338.6 110.036 340.472 110.036 342.8C110.036 345.128 111.524 347 114.692 347C116.612 347 118.148 346.112 118.628 345.08V347H121.508V346.04H119.588ZM114.692 346.04C112.46 346.04 110.996 344.96 110.996 342.8C110.996 340.64 112.46 339.56 114.692 339.56C116.924 339.56 118.628 340.64 118.628 342.8C118.628 344.96 116.924 346.04 114.692 346.04ZM139.118 335C137.319 335 135.183 335.888 134.463 337.64C134.511 333.488 136.167 331.64 139.839 331.64C141.279 331.64 142.215 331.64 143.295 331.112V330.2C141.903 330.68 141.231 330.68 139.839 330.68C134.895 330.68 133.503 333.824 133.503 337.88V339.8C133.503 343.784 134.919 347 139.118 347C143.367 347 144.734 344.528 144.734 341C144.734 337.472 143.367 335 139.118 335ZM139.118 346.04C136.767 346.04 134.463 344.6 134.463 340.76C134.463 337.4 136.767 335.96 139.118 335.96C141.471 335.96 143.775 336.608 143.775 341C143.775 345.392 141.471 346.04 139.118 346.04ZM158.159 335H150.191V335.96C150.215 340.904 150.263 346.04 147.143 346.04V347C151.295 347 151.199 340.832 151.151 335.96H157.199V347H158.159V335ZM170.119 346.04V335H162.199V335.96H169.159V340.52C168.679 339.488 167.143 338.6 165.223 338.6C162.055 338.6 160.567 340.472 160.567 342.8C160.567 345.128 162.055 347 165.223 347C167.143 347 168.679 346.112 169.159 345.08V347H172.039V346.04H170.119ZM165.223 346.04C162.991 346.04 161.527 344.96 161.527 342.8C161.527 340.64 162.991 339.56 165.223 339.56C167.455 339.56 169.159 340.64 169.159 342.8C169.159 344.96 167.455 346.04 165.223 346.04ZM189.65 335C187.85 335 185.714 335.888 184.994 337.64C185.042 333.488 186.698 331.64 190.37 331.64C191.81 331.64 192.746 331.64 193.826 331.112V330.2C192.434 330.68 191.762 330.68 190.37 330.68C185.426 330.68 184.034 333.824 184.034 337.88V339.8C184.034 343.784 185.45 347 189.65 347C193.898 347 195.266 344.528 195.266 341C195.266 337.472 193.898 335 189.65 335ZM189.65 346.04C187.298 346.04 184.994 344.6 184.994 340.76C184.994 337.4 187.298 335.96 189.65 335.96C192.002 335.96 194.306 336.608 194.306 341C194.306 345.392 192.002 346.04 189.65 346.04ZM208.69 335H200.722V335.96C200.746 340.904 200.794 346.04 197.674 346.04V347C201.826 347 201.73 340.832 201.682 335.96H207.73V347H208.69V335ZM220.65 346.04V335H212.73V335.96H219.69V340.52C219.21 339.488 217.674 338.6 215.754 338.6C212.586 338.6 211.098 340.472 211.098 342.8C211.098 345.128 212.586 347 215.754 347C217.674 347 219.21 346.112 219.69 345.08V347H222.57V346.04H220.65ZM215.754 346.04C213.522 346.04 212.058 344.96 212.058 342.8C212.058 340.64 213.522 339.56 215.754 339.56C217.986 339.56 219.69 340.64 219.69 342.8C219.69 344.96 217.986 346.04 215.754 346.04ZM240.181 335C238.381 335 236.245 335.888 235.525 337.64C235.573 333.488 237.229 331.64 240.901 331.64C242.341 331.64 243.277 331.64 244.357 331.112V330.2C242.965 330.68 242.293 330.68 240.901 330.68C235.957 330.68 234.565 333.824 234.565 337.88V339.8C234.565 343.784 235.981 347 240.181 347C244.429 347 245.797 344.528 245.797 341C245.797 337.472 244.429 335 240.181 335ZM240.181 346.04C237.829 346.04 235.525 344.6 235.525 340.76C235.525 337.4 237.829 335.96 240.181 335.96C242.533 335.96 244.837 336.608 244.837 341C244.837 345.392 242.533 346.04 240.181 346.04ZM259.222 335H251.254V335.96C251.278 340.904 251.326 346.04 248.206 346.04V347C252.358 347 252.262 340.832 252.214 335.96H258.262V347H259.222V335ZM271.182 346.04V335H263.262V335.96H270.222V340.52C269.742 339.488 268.206 338.6 266.286 338.6C263.118 338.6 261.63 340.472 261.63 342.8C261.63 345.128 263.118 347 266.286 347C268.206 347 269.742 346.112 270.222 345.08V347H273.102V346.04H271.182ZM266.286 346.04C264.054 346.04 262.59 344.96 262.59 342.8C262.59 340.64 264.054 339.56 266.286 339.56C268.518 339.56 270.222 340.64 270.222 342.8C270.222 344.96 268.518 346.04 266.286 346.04ZM290.712 335C288.912 335 286.776 335.888 286.056 337.64C286.104 333.488 287.76 331.64 291.432 331.64C292.872 331.64 293.808 331.64 294.888 331.112V330.2C293.496 330.68 292.824 330.68 291.432 330.68C286.488 330.68 285.096 333.824 285.096 337.88V339.8C285.096 343.784 286.512 347 290.712 347C294.96 347 296.328 344.528 296.328 341C296.328 337.472 294.96 335 290.712 335ZM290.712 346.04C288.36 346.04 286.056 344.6 286.056 340.76C286.056 337.4 288.36 335.96 290.712 335.96C293.064 335.96 295.368 336.608 295.368 341C295.368 345.392 293.064 346.04 290.712 346.04ZM309.753 335H301.785V335.96C301.809 340.904 301.857 346.04 298.737 346.04V347C302.889 347 302.793 340.832 302.745 335.96H308.793V347H309.753V335ZM321.713 346.04V335H313.793V335.96H320.753V340.52C320.273 339.488 318.737 338.6 316.817 338.6C313.649 338.6 312.161 340.472 312.161 342.8C312.161 345.128 313.649 347 316.817 347C318.737 347 320.273 346.112 320.753 345.08V347H323.633V346.04H321.713ZM316.817 346.04C314.585 346.04 313.121 344.96 313.121 342.8C313.121 340.64 314.585 339.56 316.817 339.56C319.049 339.56 320.753 340.64 320.753 342.8C320.753 344.96 319.049 346.04 316.817 346.04ZM341.243 335C339.444 335 337.308 335.888 336.588 337.64C336.636 333.488 338.292 331.64 341.964 331.64C343.404 331.64 344.34 331.64 345.42 331.112V330.2C344.028 330.68 343.356 330.68 341.964 330.68C337.02 330.68 335.628 333.824 335.628 337.88V339.8C335.628 343.784 337.044 347 341.243 347C345.492 347 346.859 344.528 346.859 341C346.859 337.472 345.492 335 341.243 335ZM341.243 346.04C338.892 346.04 336.588 344.6 336.588 340.76C336.588 337.4 338.892 335.96 341.243 335.96C343.596 335.96 345.9 336.608 345.9 341C345.9 345.392 343.596 346.04 341.243 346.04ZM360.284 335H352.316V335.96C352.34 340.904 352.388 346.04 349.268 346.04V347C353.42 347 353.324 340.832 353.276 335.96H359.324V347H360.284V335ZM372.244 346.04V335H364.324V335.96H371.284V340.52C370.804 339.488 369.268 338.6 367.348 338.6C364.18 338.6 362.692 340.472 362.692 342.8C362.692 345.128 364.18 347 367.348 347C369.268 347 370.804 346.112 371.284 345.08V347H374.164V346.04H372.244ZM367.348 346.04C365.116 346.04 363.652 344.96 363.652 342.8C363.652 340.64 365.116 339.56 367.348 339.56C369.58 339.56 371.284 340.64 371.284 342.8C371.284 344.96 369.58 346.04 367.348 346.04ZM38.056 364C36.256 364 34.12 364.888 33.4 366.64C33.448 362.488 35.104 360.64 38.776 360.64C40.216 360.64 41.152 360.64 42.232 360.112V359.2C40.84 359.68 40.168 359.68 38.776 359.68C33.832 359.68 32.44 362.824 32.44 366.88V368.8C32.44 372.784 33.856 376 38.056 376C42.304 376 43.672 373.528 43.672 370C43.672 366.472 42.304 364 38.056 364ZM38.056 375.04C35.704 375.04 33.4 373.6 33.4 369.76C33.4 366.4 35.704 364.96 38.056 364.96C40.408 364.96 42.712 365.608 42.712 370C42.712 374.392 40.408 375.04 38.056 375.04ZM57.0966 364H49.1286V364.96C49.1526 369.904 49.2006 375.04 46.0806 375.04V376C50.2326 376 50.1366 369.832 50.0886 364.96H56.1366V376H57.0966V364ZM69.0567 375.04V364H61.1367V364.96H68.0967V369.52C67.6167 368.488 66.0807 367.6 64.1607 367.6C60.9927 367.6 59.5047 369.472 59.5047 371.8C59.5047 374.128 60.9927 376 64.1607 376C66.0807 376 67.6167 375.112 68.0967 374.08V376H70.9767V375.04H69.0567ZM64.1607 375.04C61.9287 375.04 60.4647 373.96 60.4647 371.8C60.4647 369.64 61.9287 368.56 64.1607 368.56C66.3927 368.56 68.0967 369.64 68.0967 371.8C68.0967 373.96 66.3927 375.04 64.1607 375.04ZM88.5872 364C86.7873 364 84.6513 364.888 83.9313 366.64C83.9793 362.488 85.6353 360.64 89.3073 360.64C90.7473 360.64 91.6833 360.64 92.7633 360.112V359.2C91.3713 359.68 90.6993 359.68 89.3073 359.68C84.3633 359.68 82.9713 362.824 82.9713 366.88V368.8C82.9713 372.784 84.3873 376 88.5872 376C92.8353 376 94.2032 373.528 94.2032 370C94.2032 366.472 92.8353 364 88.5872 364ZM88.5872 375.04C86.2353 375.04 83.9313 373.6 83.9313 369.76C83.9313 366.4 86.2353 364.96 88.5872 364.96C90.9393 364.96 93.2433 365.608 93.2433 370C93.2433 374.392 90.9393 375.04 88.5872 375.04ZM107.628 364H99.6599V364.96C99.6839 369.904 99.7319 375.04 96.6119 375.04V376C100.764 376 100.668 369.832 100.62 364.96H106.668V376H107.628V364ZM119.588 375.04V364H111.668V364.96H118.628V369.52C118.148 368.488 116.612 367.6 114.692 367.6C111.524 367.6 110.036 369.472 110.036 371.8C110.036 374.128 111.524 376 114.692 376C116.612 376 118.148 375.112 118.628 374.08V376H121.508V375.04H119.588ZM114.692 375.04C112.46 375.04 110.996 373.96 110.996 371.8C110.996 369.64 112.46 368.56 114.692 368.56C116.924 368.56 118.628 369.64 118.628 371.8C118.628 373.96 116.924 375.04 114.692 375.04ZM139.118 364C137.319 364 135.183 364.888 134.463 366.64C134.511 362.488 136.167 360.64 139.839 360.64C141.279 360.64 142.215 360.64 143.295 360.112V359.2C141.903 359.68 141.231 359.68 139.839 359.68C134.895 359.68 133.503 362.824 133.503 366.88V368.8C133.503 372.784 134.919 376 139.118 376C143.367 376 144.734 373.528 144.734 370C144.734 366.472 143.367 364 139.118 364ZM139.118 375.04C136.767 375.04 134.463 373.6 134.463 369.76C134.463 366.4 136.767 364.96 139.118 364.96C141.471 364.96 143.775 365.608 143.775 370C143.775 374.392 141.471 375.04 139.118 375.04ZM158.159 364H150.191V364.96C150.215 369.904 150.263 375.04 147.143 375.04V376C151.295 376 151.199 369.832 151.151 364.96H157.199V376H158.159V364ZM170.119 375.04V364H162.199V364.96H169.159V369.52C168.679 368.488 167.143 367.6 165.223 367.6C162.055 367.6 160.567 369.472 160.567 371.8C160.567 374.128 162.055 376 165.223 376C167.143 376 168.679 375.112 169.159 374.08V376H172.039V375.04H170.119ZM165.223 375.04C162.991 375.04 161.527 373.96 161.527 371.8C161.527 369.64 162.991 368.56 165.223 368.56C167.455 368.56 169.159 369.64 169.159 371.8C169.159 373.96 167.455 375.04 165.223 375.04ZM189.65 364C187.85 364 185.714 364.888 184.994 366.64C185.042 362.488 186.698 360.64 190.37 360.64C191.81 360.64 192.746 360.64 193.826 360.112V359.2C192.434 359.68 191.762 359.68 190.37 359.68C185.426 359.68 184.034 362.824 184.034 366.88V368.8C184.034 372.784 185.45 376 189.65 376C193.898 376 195.266 373.528 195.266 370C195.266 366.472 193.898 364 189.65 364ZM189.65 375.04C187.298 375.04 184.994 373.6 184.994 369.76C184.994 366.4 187.298 364.96 189.65 364.96C192.002 364.96 194.306 365.608 194.306 370C194.306 374.392 192.002 375.04 189.65 375.04ZM208.69 364H200.722V364.96C200.746 369.904 200.794 375.04 197.674 375.04V376C201.826 376 201.73 369.832 201.682 364.96H207.73V376H208.69V364ZM220.65 375.04V364H212.73V364.96H219.69V369.52C219.21 368.488 217.674 367.6 215.754 367.6C212.586 367.6 211.098 369.472 211.098 371.8C211.098 374.128 212.586 376 215.754 376C217.674 376 219.21 375.112 219.69 374.08V376H222.57V375.04H220.65ZM215.754 375.04C213.522 375.04 212.058 373.96 212.058 371.8C212.058 369.64 213.522 368.56 215.754 368.56C217.986 368.56 219.69 369.64 219.69 371.8C219.69 373.96 217.986 375.04 215.754 375.04ZM240.181 364C238.381 364 236.245 364.888 235.525 366.64C235.573 362.488 237.229 360.64 240.901 360.64C242.341 360.64 243.277 360.64 244.357 360.112V359.2C242.965 359.68 242.293 359.68 240.901 359.68C235.957 359.68 234.565 362.824 234.565 366.88V368.8C234.565 372.784 235.981 376 240.181 376C244.429 376 245.797 373.528 245.797 370C245.797 366.472 244.429 364 240.181 364ZM240.181 375.04C237.829 375.04 235.525 373.6 235.525 369.76C235.525 366.4 237.829 364.96 240.181 364.96C242.533 364.96 244.837 365.608 244.837 370C244.837 374.392 242.533 375.04 240.181 375.04ZM259.222 364H251.254V364.96C251.278 369.904 251.326 375.04 248.206 375.04V376C252.358 376 252.262 369.832 252.214 364.96H258.262V376H259.222V364ZM271.182 375.04V364H263.262V364.96H270.222V369.52C269.742 368.488 268.206 367.6 266.286 367.6C263.118 367.6 261.63 369.472 261.63 371.8C261.63 374.128 263.118 376 266.286 376C268.206 376 269.742 375.112 270.222 374.08V376H273.102V375.04H271.182ZM266.286 375.04C264.054 375.04 262.59 373.96 262.59 371.8C262.59 369.64 264.054 368.56 266.286 368.56C268.518 368.56 270.222 369.64 270.222 371.8C270.222 373.96 268.518 375.04 266.286 375.04ZM290.712 364C288.912 364 286.776 364.888 286.056 366.64C286.104 362.488 287.76 360.64 291.432 360.64C292.872 360.64 293.808 360.64 294.888 360.112V359.2C293.496 359.68 292.824 359.68 291.432 359.68C286.488 359.68 285.096 362.824 285.096 366.88V368.8C285.096 372.784 286.512 376 290.712 376C294.96 376 296.328 373.528 296.328 370C296.328 366.472 294.96 364 290.712 364ZM290.712 375.04C288.36 375.04 286.056 373.6 286.056 369.76C286.056 366.4 288.36 364.96 290.712 364.96C293.064 364.96 295.368 365.608 295.368 370C295.368 374.392 293.064 375.04 290.712 375.04ZM309.753 364H301.785V364.96C301.809 369.904 301.857 375.04 298.737 375.04V376C302.889 376 302.793 369.832 302.745 364.96H308.793V376H309.753V364ZM321.713 375.04V364H313.793V364.96H320.753V369.52C320.273 368.488 318.737 367.6 316.817 367.6C313.649 367.6 312.161 369.472 312.161 371.8C312.161 374.128 313.649 376 316.817 376C318.737 376 320.273 375.112 320.753 374.08V376H323.633V375.04H321.713ZM316.817 375.04C314.585 375.04 313.121 373.96 313.121 371.8C313.121 369.64 314.585 368.56 316.817 368.56C319.049 368.56 320.753 369.64 320.753 371.8C320.753 373.96 319.049 375.04 316.817 375.04ZM341.243 364C339.444 364 337.308 364.888 336.588 366.64C336.636 362.488 338.292 360.64 341.964 360.64C343.404 360.64 344.34 360.64 345.42 360.112V359.2C344.028 359.68 343.356 359.68 341.964 359.68C337.02 359.68 335.628 362.824 335.628 366.88V368.8C335.628 372.784 337.044 376 341.243 376C345.492 376 346.859 373.528 346.859 370C346.859 366.472 345.492 364 341.243 364ZM341.243 375.04C338.892 375.04 336.588 373.6 336.588 369.76C336.588 366.4 338.892 364.96 341.243 364.96C343.596 364.96 345.9 365.608 345.9 370C345.9 374.392 343.596 375.04 341.243 375.04ZM360.284 364H352.316V364.96C352.34 369.904 352.388 375.04 349.268 375.04V376C353.42 376 353.324 369.832 353.276 364.96H359.324V376H360.284V364ZM372.244 375.04V364H364.324V364.96H371.284V369.52C370.804 368.488 369.268 367.6 367.348 367.6C364.18 367.6 362.692 369.472 362.692 371.8C362.692 374.128 364.18 376 367.348 376C369.268 376 370.804 375.112 371.284 374.08V376H374.164V375.04H372.244ZM367.348 375.04C365.116 375.04 363.652 373.96 363.652 371.8C363.652 369.64 365.116 368.56 367.348 368.56C369.58 368.56 371.284 369.64 371.284 371.8C371.284 373.96 369.58 375.04 367.348 375.04ZM38.056 393C36.256 393 34.12 393.888 33.4 395.64C33.448 391.488 35.104 389.64 38.776 389.64C40.216 389.64 41.152 389.64 42.232 389.112V388.2C40.84 388.68 40.168 388.68 38.776 388.68C33.832 388.68 32.44 391.824 32.44 395.88V397.8C32.44 401.784 33.856 405 38.056 405C42.304 405 43.672 402.528 43.672 399C43.672 395.472 42.304 393 38.056 393ZM38.056 404.04C35.704 404.04 33.4 402.6 33.4 398.76C33.4 395.4 35.704 393.96 38.056 393.96C40.408 393.96 42.712 394.608 42.712 399C42.712 403.392 40.408 404.04 38.056 404.04ZM57.0966 393H49.1286V393.96C49.1526 398.904 49.2006 404.04 46.0806 404.04V405C50.2326 405 50.1366 398.832 50.0886 393.96H56.1366V405H57.0966V393ZM69.0567 404.04V393H61.1367V393.96H68.0967V398.52C67.6167 397.488 66.0807 396.6 64.1607 396.6C60.9927 396.6 59.5047 398.472 59.5047 400.8C59.5047 403.128 60.9927 405 64.1607 405C66.0807 405 67.6167 404.112 68.0967 403.08V405H70.9767V404.04H69.0567ZM64.1607 404.04C61.9287 404.04 60.4647 402.96 60.4647 400.8C60.4647 398.64 61.9287 397.56 64.1607 397.56C66.3927 397.56 68.0967 398.64 68.0967 400.8C68.0967 402.96 66.3927 404.04 64.1607 404.04ZM88.5872 393C86.7873 393 84.6513 393.888 83.9313 395.64C83.9793 391.488 85.6353 389.64 89.3073 389.64C90.7473 389.64 91.6833 389.64 92.7633 389.112V388.2C91.3713 388.68 90.6993 388.68 89.3073 388.68C84.3633 388.68 82.9713 391.824 82.9713 395.88V397.8C82.9713 401.784 84.3873 405 88.5872 405C92.8353 405 94.2032 402.528 94.2032 399C94.2032 395.472 92.8353 393 88.5872 393ZM88.5872 404.04C86.2353 404.04 83.9313 402.6 83.9313 398.76C83.9313 395.4 86.2353 393.96 88.5872 393.96C90.9393 393.96 93.2433 394.608 93.2433 399C93.2433 403.392 90.9393 404.04 88.5872 404.04ZM107.628 393H99.6599V393.96C99.6839 398.904 99.7319 404.04 96.6119 404.04V405C100.764 405 100.668 398.832 100.62 393.96H106.668V405H107.628V393ZM119.588 404.04V393H111.668V393.96H118.628V398.52C118.148 397.488 116.612 396.6 114.692 396.6C111.524 396.6 110.036 398.472 110.036 400.8C110.036 403.128 111.524 405 114.692 405C116.612 405 118.148 404.112 118.628 403.08V405H121.508V404.04H119.588ZM114.692 404.04C112.46 404.04 110.996 402.96 110.996 400.8C110.996 398.64 112.46 397.56 114.692 397.56C116.924 397.56 118.628 398.64 118.628 400.8C118.628 402.96 116.924 404.04 114.692 404.04ZM139.118 393C137.319 393 135.183 393.888 134.463 395.64C134.511 391.488 136.167 389.64 139.839 389.64C141.279 389.64 142.215 389.64 143.295 389.112V388.2C141.903 388.68 141.231 388.68 139.839 388.68C134.895 388.68 133.503 391.824 133.503 395.88V397.8C133.503 401.784 134.919 405 139.118 405C143.367 405 144.734 402.528 144.734 399C144.734 395.472 143.367 393 139.118 393ZM139.118 404.04C136.767 404.04 134.463 402.6 134.463 398.76C134.463 395.4 136.767 393.96 139.118 393.96C141.471 393.96 143.775 394.608 143.775 399C143.775 403.392 141.471 404.04 139.118 404.04ZM158.159 393H150.191V393.96C150.215 398.904 150.263 404.04 147.143 404.04V405C151.295 405 151.199 398.832 151.151 393.96H157.199V405H158.159V393ZM170.119 404.04V393H162.199V393.96H169.159V398.52C168.679 397.488 167.143 396.6 165.223 396.6C162.055 396.6 160.567 398.472 160.567 400.8C160.567 403.128 162.055 405 165.223 405C167.143 405 168.679 404.112 169.159 403.08V405H172.039V404.04H170.119ZM165.223 404.04C162.991 404.04 161.527 402.96 161.527 400.8C161.527 398.64 162.991 397.56 165.223 397.56C167.455 397.56 169.159 398.64 169.159 400.8C169.159 402.96 167.455 404.04 165.223 404.04ZM189.65 393C187.85 393 185.714 393.888 184.994 395.64C185.042 391.488 186.698 389.64 190.37 389.64C191.81 389.64 192.746 389.64 193.826 389.112V388.2C192.434 388.68 191.762 388.68 190.37 388.68C185.426 388.68 184.034 391.824 184.034 395.88V397.8C184.034 401.784 185.45 405 189.65 405C193.898 405 195.266 402.528 195.266 399C195.266 395.472 193.898 393 189.65 393ZM189.65 404.04C187.298 404.04 184.994 402.6 184.994 398.76C184.994 395.4 187.298 393.96 189.65 393.96C192.002 393.96 194.306 394.608 194.306 399C194.306 403.392 192.002 404.04 189.65 404.04ZM208.69 393H200.722V393.96C200.746 398.904 200.794 404.04 197.674 404.04V405C201.826 405 201.73 398.832 201.682 393.96H207.73V405H208.69V393ZM220.65 404.04V393H212.73V393.96H219.69V398.52C219.21 397.488 217.674 396.6 215.754 396.6C212.586 396.6 211.098 398.472 211.098 400.8C211.098 403.128 212.586 405 215.754 405C217.674 405 219.21 404.112 219.69 403.08V405H222.57V404.04H220.65ZM215.754 404.04C213.522 404.04 212.058 402.96 212.058 400.8C212.058 398.64 213.522 397.56 215.754 397.56C217.986 397.56 219.69 398.64 219.69 400.8C219.69 402.96 217.986 404.04 215.754 404.04ZM240.181 393C238.381 393 236.245 393.888 235.525 395.64C235.573 391.488 237.229 389.64 240.901 389.64C242.341 389.64 243.277 389.64 244.357 389.112V388.2C242.965 388.68 242.293 388.68 240.901 388.68C235.957 388.68 234.565 391.824 234.565 395.88V397.8C234.565 401.784 235.981 405 240.181 405C244.429 405 245.797 402.528 245.797 399C245.797 395.472 244.429 393 240.181 393ZM240.181 404.04C237.829 404.04 235.525 402.6 235.525 398.76C235.525 395.4 237.829 393.96 240.181 393.96C242.533 393.96 244.837 394.608 244.837 399C244.837 403.392 242.533 404.04 240.181 404.04ZM259.222 393H251.254V393.96C251.278 398.904 251.326 404.04 248.206 404.04V405C252.358 405 252.262 398.832 252.214 393.96H258.262V405H259.222V393ZM271.182 404.04V393H263.262V393.96H270.222V398.52C269.742 397.488 268.206 396.6 266.286 396.6C263.118 396.6 261.63 398.472 261.63 400.8C261.63 403.128 263.118 405 266.286 405C268.206 405 269.742 404.112 270.222 403.08V405H273.102V404.04H271.182ZM266.286 404.04C264.054 404.04 262.59 402.96 262.59 400.8C262.59 398.64 264.054 397.56 266.286 397.56C268.518 397.56 270.222 398.64 270.222 400.8C270.222 402.96 268.518 404.04 266.286 404.04ZM290.712 393C288.912 393 286.776 393.888 286.056 395.64C286.104 391.488 287.76 389.64 291.432 389.64C292.872 389.64 293.808 389.64 294.888 389.112V388.2C293.496 388.68 292.824 388.68 291.432 388.68C286.488 388.68 285.096 391.824 285.096 395.88V397.8C285.096 401.784 286.512 405 290.712 405C294.96 405 296.328 402.528 296.328 399C296.328 395.472 294.96 393 290.712 393ZM290.712 404.04C288.36 404.04 286.056 402.6 286.056 398.76C286.056 395.4 288.36 393.96 290.712 393.96C293.064 393.96 295.368 394.608 295.368 399C295.368 403.392 293.064 404.04 290.712 404.04ZM309.753 393H301.785V393.96C301.809 398.904 301.857 404.04 298.737 404.04V405C302.889 405 302.793 398.832 302.745 393.96H308.793V405H309.753V393ZM321.713 404.04V393H313.793V393.96H320.753V398.52C320.273 397.488 318.737 396.6 316.817 396.6C313.649 396.6 312.161 398.472 312.161 400.8C312.161 403.128 313.649 405 316.817 405C318.737 405 320.273 404.112 320.753 403.08V405H323.633V404.04H321.713ZM316.817 404.04C314.585 404.04 313.121 402.96 313.121 400.8C313.121 398.64 314.585 397.56 316.817 397.56C319.049 397.56 320.753 398.64 320.753 400.8C320.753 402.96 319.049 404.04 316.817 404.04ZM341.243 393C339.444 393 337.308 393.888 336.588 395.64C336.636 391.488 338.292 389.64 341.964 389.64C343.404 389.64 344.34 389.64 345.42 389.112V388.2C344.028 388.68 343.356 388.68 341.964 388.68C337.02 388.68 335.628 391.824 335.628 395.88V397.8C335.628 401.784 337.044 405 341.243 405C345.492 405 346.859 402.528 346.859 399C346.859 395.472 345.492 393 341.243 393ZM341.243 404.04C338.892 404.04 336.588 402.6 336.588 398.76C336.588 395.4 338.892 393.96 341.243 393.96C343.596 393.96 345.9 394.608 345.9 399C345.9 403.392 343.596 404.04 341.243 404.04ZM360.284 393H352.316V393.96C352.34 398.904 352.388 404.04 349.268 404.04V405C353.42 405 353.324 398.832 353.276 393.96H359.324V405H360.284V393ZM372.244 404.04V393H364.324V393.96H371.284V398.52C370.804 397.488 369.268 396.6 367.348 396.6C364.18 396.6 362.692 398.472 362.692 400.8C362.692 403.128 364.18 405 367.348 405C369.268 405 370.804 404.112 371.284 403.08V405H374.164V404.04H372.244ZM367.348 404.04C365.116 404.04 363.652 402.96 363.652 400.8C363.652 398.64 365.116 397.56 367.348 397.56C369.58 397.56 371.284 398.64 371.284 400.8C371.284 402.96 369.58 404.04 367.348 404.04ZM38.056 422C36.256 422 34.12 422.888 33.4 424.64C33.448 420.488 35.104 418.64 38.776 418.64C40.216 418.64 41.152 418.64 42.232 418.112V417.2C40.84 417.68 40.168 417.68 38.776 417.68C33.832 417.68 32.44 420.824 32.44 424.88V426.8C32.44 430.784 33.856 434 38.056 434C42.304 434 43.672 431.528 43.672 428C43.672 424.472 42.304 422 38.056 422ZM38.056 433.04C35.704 433.04 33.4 431.6 33.4 427.76C33.4 424.4 35.704 422.96 38.056 422.96C40.408 422.96 42.712 423.608 42.712 428C42.712 432.392 40.408 433.04 38.056 433.04ZM57.0966 422H49.1286V422.96C49.1526 427.904 49.2006 433.04 46.0806 433.04V434C50.2326 434 50.1366 427.832 50.0886 422.96H56.1366V434H57.0966V422ZM69.0567 433.04V422H61.1367V422.96H68.0967V427.52C67.6167 426.488 66.0807 425.6 64.1607 425.6C60.9927 425.6 59.5047 427.472 59.5047 429.8C59.5047 432.128 60.9927 434 64.1607 434C66.0807 434 67.6167 433.112 68.0967 432.08V434H70.9767V433.04H69.0567ZM64.1607 433.04C61.9287 433.04 60.4647 431.96 60.4647 429.8C60.4647 427.64 61.9287 426.56 64.1607 426.56C66.3927 426.56 68.0967 427.64 68.0967 429.8C68.0967 431.96 66.3927 433.04 64.1607 433.04ZM88.5872 422C86.7873 422 84.6513 422.888 83.9313 424.64C83.9793 420.488 85.6353 418.64 89.3073 418.64C90.7473 418.64 91.6833 418.64 92.7633 418.112V417.2C91.3713 417.68 90.6993 417.68 89.3073 417.68C84.3633 417.68 82.9713 420.824 82.9713 424.88V426.8C82.9713 430.784 84.3873 434 88.5872 434C92.8353 434 94.2032 431.528 94.2032 428C94.2032 424.472 92.8353 422 88.5872 422ZM88.5872 433.04C86.2353 433.04 83.9313 431.6 83.9313 427.76C83.9313 424.4 86.2353 422.96 88.5872 422.96C90.9393 422.96 93.2433 423.608 93.2433 428C93.2433 432.392 90.9393 433.04 88.5872 433.04ZM107.628 422H99.6599V422.96C99.6839 427.904 99.7319 433.04 96.6119 433.04V434C100.764 434 100.668 427.832 100.62 422.96H106.668V434H107.628V422ZM119.588 433.04V422H111.668V422.96H118.628V427.52C118.148 426.488 116.612 425.6 114.692 425.6C111.524 425.6 110.036 427.472 110.036 429.8C110.036 432.128 111.524 434 114.692 434C116.612 434 118.148 433.112 118.628 432.08V434H121.508V433.04H119.588ZM114.692 433.04C112.46 433.04 110.996 431.96 110.996 429.8C110.996 427.64 112.46 426.56 114.692 426.56C116.924 426.56 118.628 427.64 118.628 429.8C118.628 431.96 116.924 433.04 114.692 433.04ZM139.118 422C137.319 422 135.183 422.888 134.463 424.64C134.511 420.488 136.167 418.64 139.839 418.64C141.279 418.64 142.215 418.64 143.295 418.112V417.2C141.903 417.68 141.231 417.68 139.839 417.68C134.895 417.68 133.503 420.824 133.503 424.88V426.8C133.503 430.784 134.919 434 139.118 434C143.367 434 144.734 431.528 144.734 428C144.734 424.472 143.367 422 139.118 422ZM139.118 433.04C136.767 433.04 134.463 431.6 134.463 427.76C134.463 424.4 136.767 422.96 139.118 422.96C141.471 422.96 143.775 423.608 143.775 428C143.775 432.392 141.471 433.04 139.118 433.04ZM158.159 422H150.191V422.96C150.215 427.904 150.263 433.04 147.143 433.04V434C151.295 434 151.199 427.832 151.151 422.96H157.199V434H158.159V422ZM170.119 433.04V422H162.199V422.96H169.159V427.52C168.679 426.488 167.143 425.6 165.223 425.6C162.055 425.6 160.567 427.472 160.567 429.8C160.567 432.128 162.055 434 165.223 434C167.143 434 168.679 433.112 169.159 432.08V434H172.039V433.04H170.119ZM165.223 433.04C162.991 433.04 161.527 431.96 161.527 429.8C161.527 427.64 162.991 426.56 165.223 426.56C167.455 426.56 169.159 427.64 169.159 429.8C169.159 431.96 167.455 433.04 165.223 433.04ZM189.65 422C187.85 422 185.714 422.888 184.994 424.64C185.042 420.488 186.698 418.64 190.37 418.64C191.81 418.64 192.746 418.64 193.826 418.112V417.2C192.434 417.68 191.762 417.68 190.37 417.68C185.426 417.68 184.034 420.824 184.034 424.88V426.8C184.034 430.784 185.45 434 189.65 434C193.898 434 195.266 431.528 195.266 428C195.266 424.472 193.898 422 189.65 422ZM189.65 433.04C187.298 433.04 184.994 431.6 184.994 427.76C184.994 424.4 187.298 422.96 189.65 422.96C192.002 422.96 194.306 423.608 194.306 428C194.306 432.392 192.002 433.04 189.65 433.04ZM208.69 422H200.722V422.96C200.746 427.904 200.794 433.04 197.674 433.04V434C201.826 434 201.73 427.832 201.682 422.96H207.73V434H208.69V422ZM220.65 433.04V422H212.73V422.96H219.69V427.52C219.21 426.488 217.674 425.6 215.754 425.6C212.586 425.6 211.098 427.472 211.098 429.8C211.098 432.128 212.586 434 215.754 434C217.674 434 219.21 433.112 219.69 432.08V434H222.57V433.04H220.65ZM215.754 433.04C213.522 433.04 212.058 431.96 212.058 429.8C212.058 427.64 213.522 426.56 215.754 426.56C217.986 426.56 219.69 427.64 219.69 429.8C219.69 431.96 217.986 433.04 215.754 433.04ZM240.181 422C238.381 422 236.245 422.888 235.525 424.64C235.573 420.488 237.229 418.64 240.901 418.64C242.341 418.64 243.277 418.64 244.357 418.112V417.2C242.965 417.68 242.293 417.68 240.901 417.68C235.957 417.68 234.565 420.824 234.565 424.88V426.8C234.565 430.784 235.981 434 240.181 434C244.429 434 245.797 431.528 245.797 428C245.797 424.472 244.429 422 240.181 422ZM240.181 433.04C237.829 433.04 235.525 431.6 235.525 427.76C235.525 424.4 237.829 422.96 240.181 422.96C242.533 422.96 244.837 423.608 244.837 428C244.837 432.392 242.533 433.04 240.181 433.04ZM259.222 422H251.254V422.96C251.278 427.904 251.326 433.04 248.206 433.04V434C252.358 434 252.262 427.832 252.214 422.96H258.262V434H259.222V422ZM271.182 433.04V422H263.262V422.96H270.222V427.52C269.742 426.488 268.206 425.6 266.286 425.6C263.118 425.6 261.63 427.472 261.63 429.8C261.63 432.128 263.118 434 266.286 434C268.206 434 269.742 433.112 270.222 432.08V434H273.102V433.04H271.182ZM266.286 433.04C264.054 433.04 262.59 431.96 262.59 429.8C262.59 427.64 264.054 426.56 266.286 426.56C268.518 426.56 270.222 427.64 270.222 429.8C270.222 431.96 268.518 433.04 266.286 433.04ZM290.712 422C288.912 422 286.776 422.888 286.056 424.64C286.104 420.488 287.76 418.64 291.432 418.64C292.872 418.64 293.808 418.64 294.888 418.112V417.2C293.496 417.68 292.824 417.68 291.432 417.68C286.488 417.68 285.096 420.824 285.096 424.88V426.8C285.096 430.784 286.512 434 290.712 434C294.96 434 296.328 431.528 296.328 428C296.328 424.472 294.96 422 290.712 422ZM290.712 433.04C288.36 433.04 286.056 431.6 286.056 427.76C286.056 424.4 288.36 422.96 290.712 422.96C293.064 422.96 295.368 423.608 295.368 428C295.368 432.392 293.064 433.04 290.712 433.04ZM309.753 422H301.785V422.96C301.809 427.904 301.857 433.04 298.737 433.04V434C302.889 434 302.793 427.832 302.745 422.96H308.793V434H309.753V422ZM321.713 433.04V422H313.793V422.96H320.753V427.52C320.273 426.488 318.737 425.6 316.817 425.6C313.649 425.6 312.161 427.472 312.161 429.8C312.161 432.128 313.649 434 316.817 434C318.737 434 320.273 433.112 320.753 432.08V434H323.633V433.04H321.713ZM316.817 433.04C314.585 433.04 313.121 431.96 313.121 429.8C313.121 427.64 314.585 426.56 316.817 426.56C319.049 426.56 320.753 427.64 320.753 429.8C320.753 431.96 319.049 433.04 316.817 433.04ZM341.243 422C339.444 422 337.308 422.888 336.588 424.64C336.636 420.488 338.292 418.64 341.964 418.64C343.404 418.64 344.34 418.64 345.42 418.112V417.2C344.028 417.68 343.356 417.68 341.964 417.68C337.02 417.68 335.628 420.824 335.628 424.88V426.8C335.628 430.784 337.044 434 341.243 434C345.492 434 346.859 431.528 346.859 428C346.859 424.472 345.492 422 341.243 422ZM341.243 433.04C338.892 433.04 336.588 431.6 336.588 427.76C336.588 424.4 338.892 422.96 341.243 422.96C343.596 422.96 345.9 423.608 345.9 428C345.9 432.392 343.596 433.04 341.243 433.04ZM360.284 422H352.316V422.96C352.34 427.904 352.388 433.04 349.268 433.04V434C353.42 434 353.324 427.832 353.276 422.96H359.324V434H360.284V422ZM372.244 433.04V422H364.324V422.96H371.284V427.52C370.804 426.488 369.268 425.6 367.348 425.6C364.18 425.6 362.692 427.472 362.692 429.8C362.692 432.128 364.18 434 367.348 434C369.268 434 370.804 433.112 371.284 432.08V434H374.164V433.04H372.244ZM367.348 433.04C365.116 433.04 363.652 431.96 363.652 429.8C363.652 427.64 365.116 426.56 367.348 426.56C369.58 426.56 371.284 427.64 371.284 429.8C371.284 431.96 369.58 433.04 367.348 433.04ZM38.056 451C36.256 451 34.12 451.888 33.4 453.64C33.448 449.488 35.104 447.64 38.776 447.64C40.216 447.64 41.152 447.64 42.232 447.112V446.2C40.84 446.68 40.168 446.68 38.776 446.68C33.832 446.68 32.44 449.824 32.44 453.88V455.8C32.44 459.784 33.856 463 38.056 463C42.304 463 43.672 460.528 43.672 457C43.672 453.472 42.304 451 38.056 451ZM38.056 462.04C35.704 462.04 33.4 460.6 33.4 456.76C33.4 453.4 35.704 451.96 38.056 451.96C40.408 451.96 42.712 452.608 42.712 457C42.712 461.392 40.408 462.04 38.056 462.04ZM57.0966 451H49.1286V451.96C49.1526 456.904 49.2006 462.04 46.0806 462.04V463C50.2326 463 50.1366 456.832 50.0886 451.96H56.1366V463H57.0966V451ZM69.0567 462.04V451H61.1367V451.96H68.0967V456.52C67.6167 455.488 66.0807 454.6 64.1607 454.6C60.9927 454.6 59.5047 456.472 59.5047 458.8C59.5047 461.128 60.9927 463 64.1607 463C66.0807 463 67.6167 462.112 68.0967 461.08V463H70.9767V462.04H69.0567ZM64.1607 462.04C61.9287 462.04 60.4647 460.96 60.4647 458.8C60.4647 456.64 61.9287 455.56 64.1607 455.56C66.3927 455.56 68.0967 456.64 68.0967 458.8C68.0967 460.96 66.3927 462.04 64.1607 462.04ZM88.5872 451C86.7873 451 84.6513 451.888 83.9313 453.64C83.9793 449.488 85.6353 447.64 89.3073 447.64C90.7473 447.64 91.6833 447.64 92.7633 447.112V446.2C91.3713 446.68 90.6993 446.68 89.3073 446.68C84.3633 446.68 82.9713 449.824 82.9713 453.88V455.8C82.9713 459.784 84.3873 463 88.5872 463C92.8353 463 94.2032 460.528 94.2032 457C94.2032 453.472 92.8353 451 88.5872 451ZM88.5872 462.04C86.2353 462.04 83.9313 460.6 83.9313 456.76C83.9313 453.4 86.2353 451.96 88.5872 451.96C90.9393 451.96 93.2433 452.608 93.2433 457C93.2433 461.392 90.9393 462.04 88.5872 462.04ZM107.628 451H99.6599V451.96C99.6839 456.904 99.7319 462.04 96.6119 462.04V463C100.764 463 100.668 456.832 100.62 451.96H106.668V463H107.628V451ZM119.588 462.04V451H111.668V451.96H118.628V456.52C118.148 455.488 116.612 454.6 114.692 454.6C111.524 454.6 110.036 456.472 110.036 458.8C110.036 461.128 111.524 463 114.692 463C116.612 463 118.148 462.112 118.628 461.08V463H121.508V462.04H119.588ZM114.692 462.04C112.46 462.04 110.996 460.96 110.996 458.8C110.996 456.64 112.46 455.56 114.692 455.56C116.924 455.56 118.628 456.64 118.628 458.8C118.628 460.96 116.924 462.04 114.692 462.04ZM139.118 451C137.319 451 135.183 451.888 134.463 453.64C134.511 449.488 136.167 447.64 139.839 447.64C141.279 447.64 142.215 447.64 143.295 447.112V446.2C141.903 446.68 141.231 446.68 139.839 446.68C134.895 446.68 133.503 449.824 133.503 453.88V455.8C133.503 459.784 134.919 463 139.118 463C143.367 463 144.734 460.528 144.734 457C144.734 453.472 143.367 451 139.118 451ZM139.118 462.04C136.767 462.04 134.463 460.6 134.463 456.76C134.463 453.4 136.767 451.96 139.118 451.96C141.471 451.96 143.775 452.608 143.775 457C143.775 461.392 141.471 462.04 139.118 462.04ZM158.159 451H150.191V451.96C150.215 456.904 150.263 462.04 147.143 462.04V463C151.295 463 151.199 456.832 151.151 451.96H157.199V463H158.159V451ZM170.119 462.04V451H162.199V451.96H169.159V456.52C168.679 455.488 167.143 454.6 165.223 454.6C162.055 454.6 160.567 456.472 160.567 458.8C160.567 461.128 162.055 463 165.223 463C167.143 463 168.679 462.112 169.159 461.08V463H172.039V462.04H170.119ZM165.223 462.04C162.991 462.04 161.527 460.96 161.527 458.8C161.527 456.64 162.991 455.56 165.223 455.56C167.455 455.56 169.159 456.64 169.159 458.8C169.159 460.96 167.455 462.04 165.223 462.04ZM189.65 451C187.85 451 185.714 451.888 184.994 453.64C185.042 449.488 186.698 447.64 190.37 447.64C191.81 447.64 192.746 447.64 193.826 447.112V446.2C192.434 446.68 191.762 446.68 190.37 446.68C185.426 446.68 184.034 449.824 184.034 453.88V455.8C184.034 459.784 185.45 463 189.65 463C193.898 463 195.266 460.528 195.266 457C195.266 453.472 193.898 451 189.65 451ZM189.65 462.04C187.298 462.04 184.994 460.6 184.994 456.76C184.994 453.4 187.298 451.96 189.65 451.96C192.002 451.96 194.306 452.608 194.306 457C194.306 461.392 192.002 462.04 189.65 462.04ZM208.69 451H200.722V451.96C200.746 456.904 200.794 462.04 197.674 462.04V463C201.826 463 201.73 456.832 201.682 451.96H207.73V463H208.69V451ZM220.65 462.04V451H212.73V451.96H219.69V456.52C219.21 455.488 217.674 454.6 215.754 454.6C212.586 454.6 211.098 456.472 211.098 458.8C211.098 461.128 212.586 463 215.754 463C217.674 463 219.21 462.112 219.69 461.08V463H222.57V462.04H220.65ZM215.754 462.04C213.522 462.04 212.058 460.96 212.058 458.8C212.058 456.64 213.522 455.56 215.754 455.56C217.986 455.56 219.69 456.64 219.69 458.8C219.69 460.96 217.986 462.04 215.754 462.04ZM240.181 451C238.381 451 236.245 451.888 235.525 453.64C235.573 449.488 237.229 447.64 240.901 447.64C242.341 447.64 243.277 447.64 244.357 447.112V446.2C242.965 446.68 242.293 446.68 240.901 446.68C235.957 446.68 234.565 449.824 234.565 453.88V455.8C234.565 459.784 235.981 463 240.181 463C244.429 463 245.797 460.528 245.797 457C245.797 453.472 244.429 451 240.181 451ZM240.181 462.04C237.829 462.04 235.525 460.6 235.525 456.76C235.525 453.4 237.829 451.96 240.181 451.96C242.533 451.96 244.837 452.608 244.837 457C244.837 461.392 242.533 462.04 240.181 462.04ZM259.222 451H251.254V451.96C251.278 456.904 251.326 462.04 248.206 462.04V463C252.358 463 252.262 456.832 252.214 451.96H258.262V463H259.222V451ZM271.182 462.04V451H263.262V451.96H270.222V456.52C269.742 455.488 268.206 454.6 266.286 454.6C263.118 454.6 261.63 456.472 261.63 458.8C261.63 461.128 263.118 463 266.286 463C268.206 463 269.742 462.112 270.222 461.08V463H273.102V462.04H271.182ZM266.286 462.04C264.054 462.04 262.59 460.96 262.59 458.8C262.59 456.64 264.054 455.56 266.286 455.56C268.518 455.56 270.222 456.64 270.222 458.8C270.222 460.96 268.518 462.04 266.286 462.04ZM290.712 451C288.912 451 286.776 451.888 286.056 453.64C286.104 449.488 287.76 447.64 291.432 447.64C292.872 447.64 293.808 447.64 294.888 447.112V446.2C293.496 446.68 292.824 446.68 291.432 446.68C286.488 446.68 285.096 449.824 285.096 453.88V455.8C285.096 459.784 286.512 463 290.712 463C294.96 463 296.328 460.528 296.328 457C296.328 453.472 294.96 451 290.712 451ZM290.712 462.04C288.36 462.04 286.056 460.6 286.056 456.76C286.056 453.4 288.36 451.96 290.712 451.96C293.064 451.96 295.368 452.608 295.368 457C295.368 461.392 293.064 462.04 290.712 462.04ZM309.753 451H301.785V451.96C301.809 456.904 301.857 462.04 298.737 462.04V463C302.889 463 302.793 456.832 302.745 451.96H308.793V463H309.753V451ZM321.713 462.04V451H313.793V451.96H320.753V456.52C320.273 455.488 318.737 454.6 316.817 454.6C313.649 454.6 312.161 456.472 312.161 458.8C312.161 461.128 313.649 463 316.817 463C318.737 463 320.273 462.112 320.753 461.08V463H323.633V462.04H321.713ZM316.817 462.04C314.585 462.04 313.121 460.96 313.121 458.8C313.121 456.64 314.585 455.56 316.817 455.56C319.049 455.56 320.753 456.64 320.753 458.8C320.753 460.96 319.049 462.04 316.817 462.04ZM341.243 451C339.444 451 337.308 451.888 336.588 453.64C336.636 449.488 338.292 447.64 341.964 447.64C343.404 447.64 344.34 447.64 345.42 447.112V446.2C344.028 446.68 343.356 446.68 341.964 446.68C337.02 446.68 335.628 449.824 335.628 453.88V455.8C335.628 459.784 337.044 463 341.243 463C345.492 463 346.859 460.528 346.859 457C346.859 453.472 345.492 451 341.243 451ZM341.243 462.04C338.892 462.04 336.588 460.6 336.588 456.76C336.588 453.4 338.892 451.96 341.243 451.96C343.596 451.96 345.9 452.608 345.9 457C345.9 461.392 343.596 462.04 341.243 462.04ZM360.284 451H352.316V451.96C352.34 456.904 352.388 462.04 349.268 462.04V463C353.42 463 353.324 456.832 353.276 451.96H359.324V463H360.284V451ZM372.244 462.04V451H364.324V451.96H371.284V456.52C370.804 455.488 369.268 454.6 367.348 454.6C364.18 454.6 362.692 456.472 362.692 458.8C362.692 461.128 364.18 463 367.348 463C369.268 463 370.804 462.112 371.284 461.08V463H374.164V462.04H372.244ZM367.348 462.04C365.116 462.04 363.652 460.96 363.652 458.8C363.652 456.64 365.116 455.56 367.348 455.56C369.58 455.56 371.284 456.64 371.284 458.8C371.284 460.96 369.58 462.04 367.348 462.04Z" fill="#9A2EA9"/>
<path fill-rule="evenodd" clip-rule="evenodd" d="M367.553 21L360 28.5531L372.777 41.3301L360.067 54.0402L367.62 61.5933L380.33 48.8832L392.527 61.08L400.08 53.5269L387.883 41.3301L400.147 29.0664L392.594 21.5133L380.33 33.777L367.553 21Z" fill="#17031A"/>
</svg>
