<svg width="250" height="146" viewBox="0 0 250 146" fill="none" xmlns="http://www.w3.org/2000/svg">
<path d="M239.982 25.9853C220.617 45.351 201.254 64.654 181.954 83.8949L181.771 84.0774C162.278 103.509 142.85 122.877 123.548 142.182C108.904 126.765 93.0089 110.097 76.1092 92.4244C80.6835 88.6255 87.0621 83.4703 94.6078 77.3833C103.883 87.4341 112.924 97.2553 122.979 108.344L123.511 108.931L124.068 108.367C130.739 101.62 137.35 95.0187 143.885 88.4923C160.202 72.1988 176.054 56.3695 191.231 39.8766L191.236 39.8718C196.176 34.4108 201.207 30.3584 206.783 27.9227C212.344 25.493 218.492 24.6519 225.706 25.6804C228.658 26.2158 231.53 26.2804 234.237 26.2144C235.413 26.1857 236.534 26.1339 237.617 26.0839C238.424 26.0466 239.211 26.0103 239.982 25.9853Z" fill="#3A7855" stroke="#17031A" stroke-width="1.5"/>
<path d="M51.1229 80.5676C64.4558 63.8627 77.6993 47.2696 90.7436 30.8758C95.6241 37.1719 100.053 43.1302 104.591 49.2345C106.506 51.8105 108.44 54.4126 110.436 57.0769C75.1001 85.4036 38.4852 114.754 1.86456 144.109C1.7095 143.979 1.55256 143.853 1.40444 143.734L1.38658 143.72C1.26054 143.619 1.14062 143.523 1.02797 143.43C17.7228 122.415 34.4923 101.404 51.1229 80.5676Z" fill="#3A7855" stroke="#17031A" stroke-width="1.5"/>
<path d="M149.541 26.2379L149.541 26.2387C149.285 40.7921 137.289 52.245 123.565 51.7365L123.564 51.7365C109.307 51.2272 98.3352 38.9992 98.8452 24.7053C99.354 11.2305 111.581 0.25743 125.083 0.767058L125.09 0.76733L125.097 0.767463C138.843 1.02206 149.795 12.4817 149.541 26.2379ZM105.548 24.8408L104.662 25.432L105.517 26.0671C108.237 28.0851 110.577 30.1118 112.681 31.934C113.711 32.8262 114.684 33.6695 115.618 34.4387C117.02 35.5935 118.335 36.5815 119.583 37.2642C120.83 37.9461 122.074 38.3585 123.319 38.2812C125.986 38.1319 128.395 36.2274 130.584 34.1029C131.404 33.307 132.224 32.4486 133.032 31.6021C133.317 31.3027 133.602 31.0047 133.884 30.7115C134.976 29.5788 136.049 28.5067 137.129 27.6177L137.747 27.1084L137.198 26.5249C136.181 25.4438 135.202 24.1783 134.217 22.8497C133.949 22.488 133.68 22.1207 133.409 21.7517C132.695 20.7775 131.972 19.7915 131.24 18.8669C129.242 16.345 126.998 14.0365 124.218 13.4505C123.061 13.203 121.829 13.5291 120.579 14.1263C119.319 14.7282 117.936 15.6573 116.437 16.7611C115.43 17.5029 114.368 18.3247 113.241 19.1968C110.969 20.9551 108.432 22.9178 105.548 24.8408Z" fill="#3A7855" stroke="#17031A" stroke-width="1.5"/>
<path d="M7.69797 27.6693C7.54819 27.5169 7.39836 27.3644 7.24848 27.2118C19.628 24.5023 30.8262 24.463 40.6553 28.1031C50.6951 31.8212 59.3992 39.4125 66.4981 52.1316C61.9757 57.4132 56.5212 63.8751 50.8088 71.2895C35.7972 56.2683 21.9625 42.1875 7.69797 27.6693Z" fill="#3A7855" stroke="#17031A" stroke-width="1.5"/>
<path d="M247.048 144.376C240.267 138.949 233.457 133.494 226.602 128.003C212.625 116.808 198.459 105.461 183.954 93.8879C188.509 89.5748 192.67 85.6637 197.674 81.1251C208.544 94.7925 219.313 108.156 230.043 121.47C236.03 128.899 242.005 136.313 247.978 143.756C247.645 143.94 247.33 144.152 247.048 144.376Z" fill="#3A7855" stroke="#17031A" stroke-width="1.5"/>
<path d="M147.743 64.948C144.343 62.2605 140.952 59.5794 137.945 57.0894C139.504 55.0269 141.018 53.0228 142.503 51.0564C147.645 44.2472 152.446 37.8907 157.649 31.1348C157.792 31.3111 157.935 31.4887 158.08 31.6676C162.236 36.8041 167.23 42.975 172.867 49.7948C170.172 52.2993 167.559 54.7939 164.934 57.2999C160.966 61.0886 156.97 64.9034 152.623 68.818C151.023 67.5403 149.382 66.2434 147.743 64.948Z" fill="#3A7855" stroke="#17031A" stroke-width="1.5"/>
</svg>
