<svg width="1320" height="555" viewBox="0 0 1320 555" fill="none" xmlns="http://www.w3.org/2000/svg">
<path d="M176.245 465C224.99 465 264.104 447.402 291.016 418.483C317.901 389.593 332.42 349.611 332.42 305.133H326.42C326.42 348.316 312.334 386.768 286.623 414.396C260.939 441.995 223.465 459 176.245 459V465ZM332.42 305.133C332.42 260.655 317.901 220.673 291.016 191.783C264.104 162.864 224.99 145.266 176.245 145.266V151.266C223.465 151.266 260.939 168.271 286.623 195.871C312.334 223.498 326.42 261.95 326.42 305.133H332.42ZM176.245 145.266C127.499 145.266 88.3855 162.864 61.4734 191.783C34.5876 220.673 20.0687 260.655 20.0687 305.133H26.0687C26.0687 261.95 40.1548 223.498 65.8656 195.871C91.5501 168.271 129.024 151.266 176.245 151.266V145.266ZM20.0687 305.133C20.0687 349.611 34.5876 389.593 61.4734 418.483C88.3855 447.402 127.499 465 176.245 465V459C129.024 459 91.5501 441.995 65.8656 414.396C40.1548 386.768 26.0687 348.316 26.0687 305.133H20.0687ZM176.245 412.863C145.708 412.863 119.812 406.132 101.556 389.59C83.3554 373.1 72.206 346.361 72.206 305.133H66.206C66.206 347.414 77.6638 376.04 97.5269 394.037C117.334 411.983 144.957 418.863 176.245 418.863V412.863ZM72.206 305.133C72.206 263.905 83.3554 237.166 101.556 220.676C119.812 204.134 145.708 197.404 176.245 197.404V191.404C144.957 191.404 117.334 198.284 97.5269 216.229C77.6638 234.227 66.206 262.853 66.206 305.133H72.206ZM176.245 197.404C206.546 197.404 232.446 204.132 250.764 220.679C269.023 237.173 280.283 263.914 280.283 305.133H286.283C286.283 262.844 274.705 234.22 254.786 216.226C234.925 198.286 207.306 191.404 176.245 191.404V197.404ZM280.283 305.133C280.283 346.352 269.023 373.093 250.764 389.587C232.446 406.134 206.546 412.863 176.245 412.863V418.863C207.306 418.863 234.925 411.981 254.786 394.04C274.705 376.046 286.283 347.422 286.283 305.133H280.283ZM578.165 148.266V145.266H575.165V148.266H578.165ZM578.165 286.678V289.678H581.165V286.678H578.165ZM421.76 286.678H418.76V289.678H421.76V286.678ZM421.76 148.266H424.76V145.266H421.76V148.266ZM375.623 148.266V145.266H372.623V148.266H375.623ZM375.623 462H372.623V465H375.623V462ZM421.76 462V465H424.76V462H421.76ZM421.76 332.816V329.816H418.76V332.816H421.76ZM578.165 332.816H581.165V329.816H578.165V332.816ZM578.165 462H575.165V465H578.165V462ZM624.303 462V465H627.303V462H624.303ZM624.303 148.266H627.303V145.266H624.303V148.266ZM575.165 148.266V286.678H581.165V148.266H575.165ZM578.165 283.678H421.76V289.678H578.165V283.678ZM424.76 286.678V148.266H418.76V286.678H424.76ZM421.76 145.266H375.623V151.266H421.76V145.266ZM372.623 148.266V462H378.623V148.266H372.623ZM375.623 465H421.76V459H375.623V465ZM424.76 462V332.816H418.76V462H424.76ZM421.76 335.816H578.165V329.816H421.76V335.816ZM575.165 332.816V462H581.165V332.816H575.165ZM578.165 465H624.303V459H578.165V465ZM627.303 462V148.266H621.303V462H627.303ZM624.303 145.266H578.165V151.266H624.303V145.266ZM887.26 148.266V145.266H885.669L884.777 146.583L887.26 148.266ZM737.775 368.803V371.803H739.366L740.259 370.486L737.775 368.803ZM730.393 368.803H727.393V371.803H730.393V368.803ZM730.393 148.266H733.393V145.266H730.393V148.266ZM684.256 148.266V145.266H681.256V148.266H684.256ZM684.256 462H681.256V465H684.256V462ZM730.393 462V465H731.984L732.877 463.683L730.393 462ZM879.878 241.464V238.464H878.287L877.395 239.78L879.878 241.464ZM887.26 241.464H890.26V238.464H887.26V241.464ZM887.26 462H884.26V465H887.26V462ZM933.398 462V465H936.398V462H933.398ZM933.398 148.266H936.398V145.266H933.398V148.266ZM884.777 146.583L735.292 367.119L740.259 370.486L889.744 149.949L884.777 146.583ZM737.775 365.803H730.393V371.803H737.775V365.803ZM733.393 368.803V148.266H727.393V368.803H733.393ZM730.393 145.266H684.256V151.266H730.393V145.266ZM681.256 148.266V462H687.256V148.266H681.256ZM684.256 465H730.393V459H684.256V465ZM732.877 463.683L882.362 243.147L877.395 239.78L727.91 460.317L732.877 463.683ZM879.878 244.464H887.26V238.464H879.878V244.464ZM884.26 241.464V462H890.26V241.464H884.26ZM887.26 465H933.398V459H887.26V465ZM936.398 462V148.266H930.398V462H936.398ZM933.398 145.266H887.26V151.266H933.398V145.266Z" fill="#9A2EA9"/>
<path d="M985 389.05C1041.33 307.674 1096.18 228.507 1152.13 147.499C1208.09 228.507 1263.31 308.042 1319.64 389.05C1207.72 389.05 1098.02 389.05 985 389.05ZM1013.35 374.321C1107.22 374.321 1197.78 374.321 1290.92 374.321C1244.17 306.569 1198.52 241.026 1152.13 173.642C1105.75 241.394 1060.47 306.569 1013.35 374.321Z" fill="#9A2EA9"/>
<path d="M1243.8 259.438C1244.54 255.019 1244.17 248.023 1246.75 246.182C1266.99 233.294 1287.98 221.511 1310.07 211.569C1289.82 227.771 1269.94 243.972 1249.69 260.542C1247.48 260.174 1245.64 259.806 1243.8 259.438Z" fill="#9A2EA9"/>
<path d="M1150.66 481.104C1148.82 455.697 1146.98 429.922 1145.14 404.515C1146.61 403.042 1148.08 401.938 1149.92 400.465C1152.87 404.147 1158.39 408.197 1158.39 411.88C1157.66 435.077 1155.45 458.275 1153.61 481.104C1152.5 481.473 1151.77 481.473 1150.66 481.104Z" fill="#9A2EA9"/>
<path d="M1064.15 249.495C1060.83 254.651 1058.26 257.596 1055.68 261.647C1036.17 245.813 1017.76 231.085 999.355 216.356C1000.09 215.251 1000.46 214.515 1001.2 213.41C1021.44 224.825 1041.69 236.608 1064.15 249.495Z" fill="#9A2EA9"/>
<path d="M1186.74 404.515C1184.9 421.821 1183.43 438.759 1181.58 456.066C1180.48 456.066 1179.01 456.066 1177.9 456.066C1176.06 440.232 1173.85 424.399 1173.12 408.197C1173.12 405.62 1179.74 403.042 1183.06 400.465C1184.16 401.569 1185.63 403.042 1186.74 404.515Z" fill="#9A2EA9"/>
<path d="M1121.58 457.539C1119.74 439.496 1118.27 421.822 1116.06 399.36C1122.68 403.043 1129.68 405.252 1129.68 407.093C1128.57 424.031 1126.36 440.969 1124.52 457.907C1123.79 457.907 1122.68 457.539 1121.58 457.539Z" fill="#9A2EA9"/>
<path d="M1028.81 199.05C1045 207.887 1061.57 217.092 1079.24 226.666C1076.66 231.085 1074.09 234.767 1071.51 238.817C1056.05 225.93 1041.69 213.41 1027.33 201.259C1027.7 200.891 1028.07 200.154 1028.81 199.05Z" fill="#9A2EA9"/>
<path d="M1276.56 201.627C1262.21 213.778 1247.85 225.93 1232.76 238.817C1229.81 234.767 1227.6 231.821 1224.29 227.403C1241.96 217.461 1258.53 208.255 1275.09 199.418C1275.46 200.154 1276.2 200.891 1276.56 201.627Z" fill="#9A2EA9"/>
<path d="M998.25 246.55C1014.08 255.019 1029.91 263.488 1046.84 273.061C1045 276.744 1043.16 280.058 1040.22 285.581C1025.12 273.061 1011.13 261.279 996.777 249.496C997.145 248.391 997.882 247.286 998.25 246.55Z" fill="#9A2EA9"/>
<path d="M1307.49 248.759C1295.71 259.069 1284.3 269.379 1271.78 278.953C1268.83 281.162 1262.94 279.689 1258.16 280.058C1257.79 277.848 1257.42 275.639 1256.69 273.43C1272.88 264.592 1289.45 255.387 1305.65 246.55C1306.38 246.918 1307.12 248.023 1307.49 248.759Z" fill="#9A2EA9"/>
<path d="M999.725 281.162C1009.66 285.949 1019.97 290.736 1029.91 295.523C1022.92 309.147 1022.92 309.147 999.725 281.162Z" fill="#9A2EA9"/>
<path d="M1094.7 204.941C1091.76 208.992 1089.55 212.306 1086.24 216.724C1078.51 206.782 1071.88 197.945 1067.46 192.054C1072.98 194.999 1083.29 199.786 1094.7 204.941Z" fill="#9A2EA9"/>
<path d="M1280.98 307.306C1278.04 303.255 1275.46 300.309 1272.51 296.259C1283.93 290.736 1294.23 285.949 1304.54 281.162C1305.28 281.899 1305.65 282.635 1306.38 283.371C1297.92 291.104 1289.82 298.837 1280.98 307.306Z" fill="#9A2EA9"/>
<path d="M1239.38 312.46C1191.16 373.216 1116.79 373.216 1067.83 313.565C1106.85 245.445 1188.95 244.34 1239.38 312.46ZM1087.34 310.619C1124.89 352.964 1180.48 357.014 1219.13 310.251C1209.56 306.2 1199.99 302.15 1190.42 298.1C1183.06 328.294 1172.75 338.972 1152.87 338.604C1133.73 338.235 1124.52 327.557 1117.53 298.1C1107.22 302.15 1097.65 306.569 1087.34 310.619ZM1137.78 291.84C1125.63 305.096 1126.73 317.247 1138.88 326.084C1150.66 334.921 1167.6 331.976 1175.33 318.72C1180.85 309.883 1183.06 300.677 1170.54 294.049C1172.01 308.042 1170.91 320.561 1153.97 320.929C1136.3 320.929 1137.41 306.937 1137.78 291.84ZM1114.22 287.421C1139.62 287.421 1167.6 287.421 1193.37 287.421C1167.23 267.169 1139.99 267.169 1114.22 287.421Z" fill="#9A2EA9"/>
<path d="M82 307.258C145.724 223.396 219.586 239.37 271 305.443C228.638 373.331 138.845 374.42 82 307.258ZM216.69 290.195C210.535 322.505 199.672 335.575 177.586 334.849C169.621 334.486 159.483 332.308 154.776 327.225C146.448 317.423 141.379 304.717 134.138 291.284C125.81 294.914 114.948 299.997 103 305.08C150.793 352.638 207.276 352.275 249.276 304.354C238.414 299.634 227.914 294.915 216.69 290.195ZM172.879 297.456C173.241 295.278 173.604 293.099 173.966 290.921C167.086 289.832 159.845 288.743 152.966 287.654C152.603 294.914 149.707 302.901 151.879 309.073C156.586 321.416 167.086 327.951 180.483 326.136C194.603 324.321 203.655 315.245 204.741 301.086C205.104 296.004 200.034 290.558 197.862 285.113C196.414 285.839 194.603 286.565 193.155 287.291C197.5 299.997 196.052 310.888 182.293 315.245C170.707 318.875 162.741 312.703 159.121 299.997C164.19 299.271 168.534 298.182 172.879 297.456ZM229 285.476C197.862 256.069 159.121 256.069 124.724 285.476C160.931 272.406 193.517 272.406 229 285.476Z" fill="#9A2EA9"/>
</svg>
