<svg width="1320" height="655" viewBox="0 0 1320 655" fill="none" xmlns="http://www.w3.org/2000/svg">
<path d="M176.245 465C224.99 465 264.104 447.402 291.016 418.483C317.901 389.593 332.42 349.611 332.42 305.133H326.42C326.42 348.316 312.334 386.768 286.623 414.396C260.939 441.995 223.465 459 176.245 459V465ZM332.42 305.133C332.42 260.655 317.901 220.673 291.016 191.783C264.104 162.864 224.99 145.266 176.245 145.266V151.266C223.465 151.266 260.939 168.271 286.623 195.871C312.334 223.498 326.42 261.95 326.42 305.133H332.42ZM176.245 145.266C127.499 145.266 88.3855 162.864 61.4734 191.783C34.5876 220.673 20.0687 260.655 20.0687 305.133H26.0687C26.0687 261.95 40.1548 223.498 65.8656 195.871C91.5501 168.271 129.024 151.266 176.245 151.266V145.266ZM20.0687 305.133C20.0687 349.611 34.5876 389.593 61.4734 418.483C88.3855 447.402 127.499 465 176.245 465V459C129.024 459 91.5501 441.995 65.8656 414.396C40.1548 386.768 26.0687 348.316 26.0687 305.133H20.0687ZM176.245 412.863C145.708 412.863 119.812 406.132 101.556 389.59C83.3554 373.1 72.206 346.361 72.206 305.133H66.206C66.206 347.414 77.6638 376.04 97.5269 394.037C117.334 411.983 144.957 418.863 176.245 418.863V412.863ZM72.206 305.133C72.206 263.905 83.3554 237.166 101.556 220.676C119.812 204.134 145.708 197.404 176.245 197.404V191.404C144.957 191.404 117.334 198.284 97.5269 216.229C77.6638 234.227 66.206 262.853 66.206 305.133H72.206ZM176.245 197.404C206.546 197.404 232.446 204.132 250.764 220.679C269.023 237.173 280.283 263.914 280.283 305.133H286.283C286.283 262.844 274.705 234.22 254.786 216.226C234.925 198.286 207.306 191.404 176.245 191.404V197.404ZM280.283 305.133C280.283 346.352 269.023 373.093 250.764 389.587C232.446 406.134 206.546 412.863 176.245 412.863V418.863C207.306 418.863 234.925 411.981 254.786 394.04C274.705 376.046 286.283 347.422 286.283 305.133H280.283ZM578.165 148.266V145.266H575.165V148.266H578.165ZM578.165 286.678V289.678H581.165V286.678H578.165ZM421.76 286.678H418.76V289.678H421.76V286.678ZM421.76 148.266H424.76V145.266H421.76V148.266ZM375.623 148.266V145.266H372.623V148.266H375.623ZM375.623 462H372.623V465H375.623V462ZM421.76 462V465H424.76V462H421.76ZM421.76 332.816V329.816H418.76V332.816H421.76ZM578.165 332.816H581.165V329.816H578.165V332.816ZM578.165 462H575.165V465H578.165V462ZM624.303 462V465H627.303V462H624.303ZM624.303 148.266H627.303V145.266H624.303V148.266ZM575.165 148.266V286.678H581.165V148.266H575.165ZM578.165 283.678H421.76V289.678H578.165V283.678ZM424.76 286.678V148.266H418.76V286.678H424.76ZM421.76 145.266H375.623V151.266H421.76V145.266ZM372.623 148.266V462H378.623V148.266H372.623ZM375.623 465H421.76V459H375.623V465ZM424.76 462V332.816H418.76V462H424.76ZM421.76 335.816H578.165V329.816H421.76V335.816ZM575.165 332.816V462H581.165V332.816H575.165ZM578.165 465H624.303V459H578.165V465ZM627.303 462V148.266H621.303V462H627.303ZM624.303 145.266H578.165V151.266H624.303V145.266ZM887.26 148.266V145.266H885.669L884.777 146.583L887.26 148.266ZM737.775 368.803V371.803H739.366L740.259 370.486L737.775 368.803ZM730.393 368.803H727.393V371.803H730.393V368.803ZM730.393 148.266H733.393V145.266H730.393V148.266ZM684.256 148.266V145.266H681.256V148.266H684.256ZM684.256 462H681.256V465H684.256V462ZM730.393 462V465H731.984L732.877 463.683L730.393 462ZM879.878 241.464V238.464H878.287L877.395 239.78L879.878 241.464ZM887.26 241.464H890.26V238.464H887.26V241.464ZM887.26 462H884.26V465H887.26V462ZM933.398 462V465H936.398V462H933.398ZM933.398 148.266H936.398V145.266H933.398V148.266ZM884.777 146.583L735.292 367.119L740.259 370.486L889.744 149.949L884.777 146.583ZM737.775 365.803H730.393V371.803H737.775V365.803ZM733.393 368.803V148.266H727.393V368.803H733.393ZM730.393 145.266H684.256V151.266H730.393V145.266ZM681.256 148.266V462H687.256V148.266H681.256ZM684.256 465H730.393V459H684.256V465ZM732.877 463.683L882.362 243.147L877.395 239.78L727.91 460.317L732.877 463.683ZM879.878 244.464H887.26V238.464H879.878V244.464ZM884.26 241.464V462H890.26V241.464H884.26ZM887.26 465H933.398V459H887.26V465ZM936.398 462V148.266H930.398V462H936.398ZM933.398 145.266H887.26V151.266H933.398V145.266Z" fill="#9A2EA9"/>
<path d="M985 389.05C1041.33 307.674 1096.18 228.507 1152.13 147.499C1208.09 228.507 1263.31 308.042 1319.64 389.05C1207.72 389.05 1098.02 389.05 985 389.05ZM1013.35 374.321C1107.22 374.321 1197.78 374.321 1290.92 374.321C1244.17 306.569 1198.52 241.026 1152.13 173.642C1105.75 241.394 1060.47 306.569 1013.35 374.321Z" fill="#9A2EA9"/>
<path d="M1243.8 259.438C1244.54 255.019 1244.17 248.023 1246.75 246.182C1266.99 233.294 1287.98 221.511 1310.07 211.569C1289.82 227.771 1269.94 243.972 1249.69 260.542C1247.48 260.174 1245.64 259.806 1243.8 259.438Z" fill="#9A2EA9"/>
<path d="M1150.66 481.104C1148.82 455.697 1146.98 429.922 1145.14 404.515C1146.61 403.042 1148.08 401.938 1149.92 400.465C1152.87 404.147 1158.39 408.197 1158.39 411.88C1157.66 435.077 1155.45 458.275 1153.61 481.104C1152.5 481.473 1151.77 481.473 1150.66 481.104Z" fill="#9A2EA9"/>
<path d="M1064.15 249.495C1060.83 254.651 1058.26 257.596 1055.68 261.647C1036.17 245.813 1017.76 231.085 999.355 216.356C1000.09 215.251 1000.46 214.515 1001.2 213.41C1021.44 224.825 1041.69 236.608 1064.15 249.495Z" fill="#9A2EA9"/>
<path d="M1186.74 404.515C1184.9 421.821 1183.43 438.759 1181.58 456.066C1180.48 456.066 1179.01 456.066 1177.9 456.066C1176.06 440.232 1173.85 424.399 1173.12 408.197C1173.12 405.62 1179.74 403.042 1183.06 400.465C1184.16 401.569 1185.63 403.042 1186.74 404.515Z" fill="#9A2EA9"/>
<path d="M1121.58 457.539C1119.74 439.496 1118.27 421.822 1116.06 399.36C1122.68 403.043 1129.68 405.252 1129.68 407.093C1128.57 424.031 1126.36 440.969 1124.52 457.907C1123.79 457.907 1122.68 457.539 1121.58 457.539Z" fill="#9A2EA9"/>
<path d="M1028.81 199.05C1045 207.887 1061.57 217.092 1079.24 226.666C1076.66 231.085 1074.09 234.767 1071.51 238.817C1056.05 225.93 1041.69 213.41 1027.33 201.259C1027.7 200.891 1028.07 200.154 1028.81 199.05Z" fill="#9A2EA9"/>
<path d="M1276.56 201.627C1262.21 213.778 1247.85 225.93 1232.76 238.817C1229.81 234.767 1227.6 231.821 1224.29 227.403C1241.96 217.461 1258.53 208.255 1275.09 199.418C1275.46 200.154 1276.2 200.891 1276.56 201.627Z" fill="#9A2EA9"/>
<path d="M998.25 246.55C1014.08 255.019 1029.91 263.488 1046.84 273.061C1045 276.744 1043.16 280.058 1040.22 285.581C1025.12 273.061 1011.13 261.279 996.777 249.496C997.145 248.391 997.882 247.286 998.25 246.55Z" fill="#9A2EA9"/>
<path d="M1307.49 248.759C1295.71 259.069 1284.3 269.379 1271.78 278.953C1268.83 281.162 1262.94 279.689 1258.16 280.058C1257.79 277.848 1257.42 275.639 1256.69 273.43C1272.88 264.592 1289.45 255.387 1305.65 246.55C1306.38 246.918 1307.12 248.023 1307.49 248.759Z" fill="#9A2EA9"/>
<path d="M999.725 281.162C1009.66 285.949 1019.97 290.736 1029.91 295.523C1022.92 309.147 1022.92 309.147 999.725 281.162Z" fill="#9A2EA9"/>
<path d="M1094.7 204.941C1091.76 208.992 1089.55 212.306 1086.24 216.724C1078.51 206.782 1071.88 197.945 1067.46 192.054C1072.98 194.999 1083.29 199.786 1094.7 204.941Z" fill="#9A2EA9"/>
<path d="M1280.98 307.306C1278.04 303.255 1275.46 300.309 1272.51 296.259C1283.93 290.736 1294.23 285.949 1304.54 281.162C1305.28 281.899 1305.65 282.635 1306.38 283.371C1297.92 291.104 1289.82 298.837 1280.98 307.306Z" fill="#9A2EA9"/>
<path d="M1239.38 312.46C1191.16 373.216 1116.79 373.216 1067.83 313.565C1106.85 245.445 1188.95 244.34 1239.38 312.46ZM1087.34 310.619C1124.89 352.964 1180.48 357.014 1219.13 310.251C1209.56 306.2 1199.99 302.15 1190.42 298.1C1183.06 328.294 1172.75 338.972 1152.87 338.604C1133.73 338.235 1124.52 327.557 1117.53 298.1C1107.22 302.15 1097.65 306.569 1087.34 310.619ZM1137.78 291.84C1125.63 305.096 1126.73 317.247 1138.88 326.084C1150.66 334.921 1167.6 331.976 1175.33 318.72C1180.85 309.883 1183.06 300.677 1170.54 294.049C1172.01 308.042 1170.91 320.561 1153.97 320.929C1136.3 320.929 1137.41 306.937 1137.78 291.84ZM1114.22 287.421C1139.62 287.421 1167.6 287.421 1193.37 287.421C1167.23 267.169 1139.99 267.169 1114.22 287.421Z" fill="#9A2EA9"/>
<path d="M82 307.258C145.724 223.396 219.586 239.37 271 305.443C228.638 373.331 138.845 374.42 82 307.258ZM216.69 290.195C210.535 322.505 199.672 335.575 177.586 334.849C169.621 334.486 159.483 332.308 154.776 327.225C146.448 317.423 141.379 304.717 134.138 291.284C125.81 294.914 114.948 299.997 103 305.08C150.793 352.638 207.276 352.275 249.276 304.354C238.414 299.634 227.914 294.915 216.69 290.195ZM172.879 297.456C173.241 295.278 173.604 293.099 173.966 290.921C167.086 289.832 159.845 288.743 152.966 287.654C152.603 294.914 149.707 302.901 151.879 309.073C156.586 321.416 167.086 327.951 180.483 326.136C194.603 324.321 203.655 315.245 204.741 301.086C205.104 296.004 200.034 290.558 197.862 285.113C196.414 285.839 194.603 286.565 193.155 287.291C197.5 299.997 196.052 310.888 182.293 315.245C170.707 318.875 162.741 312.703 159.121 299.997C164.19 299.271 168.534 298.182 172.879 297.456ZM229 285.476C197.862 256.069 159.121 256.069 124.724 285.476C160.931 272.406 193.517 272.406 229 285.476Z" fill="#9A2EA9"/>
<path d="M241.2 590C241.2 611.168 252.288 626 273.456 626C292.32 626 303.408 614.336 303.408 598.64H289.008C288.432 606.128 285.408 611.6 274.176 611.6C260.784 611.6 255.6 607.28 255.6 590C255.6 572.72 260.784 568.4 274.176 568.4C285.408 568.4 288.432 573.872 289.008 581.36H303.408C303.408 565.664 292.32 554 273.456 554C252.288 554 241.2 568.832 241.2 590ZM391.137 554H336.129V565.808C335.985 590.72 334.689 611.6 319.281 611.6V626C347.937 626 350.529 595.76 350.673 568.4H376.737V626H391.137V554ZM466.392 588.56C466.392 567.392 457.464 554 435.288 554C413.112 554 404.184 568.832 404.184 590C404.184 602.816 408.216 626 440.76 626C446.232 626 450.264 626 461.496 623.12V609.008C452.136 611.6 446.52 611.6 440.76 611.6C425.064 611.6 420.456 605.408 419.16 597.2H466.392V588.56ZM435.288 568.4C446.664 568.4 451.416 572.288 451.992 582.8H418.728C419.592 573.152 424.488 568.4 435.288 568.4ZM547.381 611.6V554H495.253V554.432C495.253 586.832 495.253 596.192 482.725 611.6H475.093V649.04H489.493V626H547.381V649.04H561.781V611.6H547.381ZM498.565 611.6C507.925 598.784 509.509 590 509.653 568.4H532.981V611.6H498.565ZM608.636 554C583.292 554 576.236 560.48 576.236 575.312C576.236 589.712 583.292 592.304 597.692 593.888V596.192H574.796V626H589.196V602.528H620.732V626H635.132V554H608.636ZM620.732 588.128H608.636C594.812 588.128 590.636 586.832 590.636 578.192C590.636 569.12 594.812 568.4 608.636 568.4H620.732V588.128ZM712.574 554H646.622V568.4H672.398V626H686.798V568.4H712.574V554ZM778.843 600.08C778.843 614.048 787.051 626 808.939 626C829.387 626 836.155 615.488 836.155 605.84C836.155 598.208 832.987 591.728 820.459 590.288V587.984C830.827 586.976 834.283 581.792 834.283 572.72C834.283 564.512 826.075 554 808.507 554C789.499 554 781.291 565.952 781.291 577.04H795.691C795.691 569.84 800.875 568.4 808.507 568.4C814.699 568.4 819.883 569.84 819.883 575.6C819.883 581.648 815.419 582.368 810.667 582.368H804.331V596.768H810.667C815.419 596.768 821.755 597.488 821.755 604.4C821.755 609.152 818.011 611.6 808.939 611.6C798.427 611.6 793.243 609.152 793.243 600.08H778.843ZM909.314 611.6V554H857.474V568.4H894.914V584.24C890.594 579.92 884.978 577.04 874.898 577.04C857.33 577.04 849.122 588.272 849.122 601.52C849.122 614.768 857.33 626 874.898 626C884.978 626 890.594 623.12 894.914 618.8V626H917.954V611.6H909.314ZM879.218 611.6C868.706 611.6 863.522 609.44 863.522 601.52C863.522 593.6 868.706 591.44 879.218 591.44C889.73 591.44 894.914 593.6 894.914 601.52C894.914 609.44 889.73 611.6 879.218 611.6ZM1034.41 554V584.384H998.556V554H984.156V626H998.556V598.784H1034.41V626H1048.81V554H1034.41ZM1122.08 611.6V554H1070.24V568.4H1107.68V584.24C1103.36 579.92 1097.74 577.04 1087.66 577.04C1070.1 577.04 1061.89 588.272 1061.89 601.52C1061.89 614.768 1070.1 626 1087.66 626C1097.74 626 1103.36 623.12 1107.68 618.8V626H1130.72V611.6H1122.08ZM1091.98 611.6C1081.47 611.6 1076.29 609.44 1076.29 601.52C1076.29 593.6 1081.47 591.44 1091.98 591.44C1102.5 591.44 1107.68 593.6 1107.68 601.52C1107.68 609.44 1102.5 611.6 1091.98 611.6ZM1216.31 554L1189.09 602.816H1186.79L1159.57 554H1145.17V626H1159.57V588.272H1161.88L1178.58 616.496H1197.3L1214 588.272H1216.31V626H1230.71V554H1216.31ZM1296.93 554L1264.67 598.352H1262.37V554H1247.97V626H1262.37L1294.62 581.648H1296.93V626H1311.33V554H1296.93Z" fill="#8CC64E"/>
<path d="M203 562.238C199.074 566.734 196.055 570.332 192.431 574.528C187.599 570.631 182.768 566.734 177.332 562.238C174.313 565.235 171.595 568.233 167.669 572.43C174.011 577.526 179.446 581.723 188.203 588.617C174.011 594.313 163.14 598.51 154.08 602.107C154.08 615.896 154.08 628.786 154.08 642.576C149.853 642.576 144.115 642.576 136.868 642.576C136.868 631.784 136.868 621.592 136.868 609.601C122.977 620.992 111.502 632.384 98.2155 640.178C88.5523 645.873 75.5675 649.77 64.6965 648.871C58.0531 648.271 48.9939 638.079 46.8801 630.585C45.3702 624.889 51.7117 614.697 57.4492 610.501C61.3748 607.803 72.2458 610.201 76.7754 614.398C80.3991 617.395 78.5873 626.388 79.1912 632.683C77.0774 632.983 75.2656 633.583 73.1518 633.883C70.736 629.386 68.0182 625.189 64.0926 618.295C61.3748 622.491 56.8452 627.887 57.7511 629.386C60.7709 633.883 66.2064 640.178 69.83 639.878C78.2853 638.979 87.6464 635.981 94.8938 631.185C105.161 624.889 113.918 616.196 124.185 608.102C106.067 603.906 90.0622 599.709 74.0576 596.711C69.83 595.812 64.6965 598.51 60.1669 600.009C44.4644 605.404 28.4598 610.8 9.73751 617.095C10.6434 607.503 10.9454 603.006 11.5493 597.011C38.7269 602.107 58.3551 589.817 77.6814 574.528C99.4234 557.441 123.581 550.547 150.759 562.538C154.382 564.036 160.12 561.039 164.348 557.741C143.209 542.453 120.863 539.755 97.9135 548.448C84.6267 553.545 71.9438 561.638 59.8649 569.432C43.2564 579.924 25.742 585.92 4 582.622C4.90592 577.226 5.81186 572.43 6.71778 567.334C7.6237 568.533 8.22761 570.032 9.13353 571.231C24.2322 566.135 40.8407 563.437 54.4294 555.643C109.086 522.668 148.947 523.568 203 562.238ZM169.783 585.32C163.14 580.524 158.006 576.926 156.194 575.727C146.229 581.123 138.076 589.217 132.036 588.018C123.883 586.219 117.24 577.226 107.577 569.132C102.141 572.43 93.3839 578.126 83.4188 584.421C110.294 599.109 138.982 599.409 169.783 585.32Z" fill="#9A2EA9"/>
</svg>
