<svg width="1318" height="824" viewBox="0 0 1318 824" fill="none" xmlns="http://www.w3.org/2000/svg">
<path d="M1 0V824" stroke="#9A2EA9" stroke-width="1.5"/>
<path d="M95 0V824" stroke="#9A2EA9" stroke-width="1.5"/>
<path d="M189 0V824" stroke="#9A2EA9" stroke-width="1.5"/>
<path d="M283 0V824" stroke="#9A2EA9" stroke-width="1.5"/>
<path d="M377 0V824" stroke="#9A2EA9" stroke-width="1.5"/>
<path d="M471 0V824" stroke="#9A2EA9" stroke-width="1.5"/>
<path d="M565 0V824" stroke="#9A2EA9" stroke-width="1.5"/>
<path d="M659 0V824" stroke="#9A2EA9" stroke-width="1.5"/>
<path d="M753 0V824" stroke="#9A2EA9" stroke-width="1.5"/>
<path d="M847 0V824" stroke="#9A2EA9" stroke-width="1.5"/>
<path d="M941 0V824" stroke="#9A2EA9" stroke-width="1.5"/>
<path d="M1035 0V824" stroke="#9A2EA9" stroke-width="1.5"/>
<path d="M1129 0V824" stroke="#9A2EA9" stroke-width="1.5"/>
<path d="M1223 0V824" stroke="#9A2EA9" stroke-width="1.5"/>
<path d="M1317 0V824" stroke="#9A2EA9" stroke-width="1.5"/>
<path d="M1 823L1317 823" stroke="#9A2EA9" stroke-width="1.5"/>
<path d="M1 729L1317 729" stroke="#9A2EA9" stroke-width="1.5"/>
<path d="M1 635L1317 635" stroke="#9A2EA9" stroke-width="1.5"/>
<path d="M1 541L1317 541" stroke="#9A2EA9" stroke-width="1.5"/>
<path d="M1 447L1317 447" stroke="#9A2EA9" stroke-width="1.5"/>
<path d="M1 353L1317 353" stroke="#9A2EA9" stroke-width="1.5"/>
<path d="M1 259L1317 259" stroke="#9A2EA9" stroke-width="1.5"/>
<path d="M1 165L1317 165" stroke="#9A2EA9" stroke-width="1.5"/>
<path d="M1 71L1317 71" stroke="#9A2EA9" stroke-width="1.5"/>
</svg>
