<svg width="199" height="117" viewBox="0 0 199 117" fill="none" xmlns="http://www.w3.org/2000/svg">
<path d="M199 30.2378C195.074 34.7343 192.055 38.3315 188.431 42.5283C183.599 38.6313 178.768 34.7343 173.332 30.2378C170.313 33.2355 167.595 36.2332 163.669 40.4299C170.011 45.526 175.446 49.7227 184.203 56.6174C170.011 62.313 159.14 66.5098 150.08 70.107C150.08 83.8964 150.08 96.7864 150.08 110.576C145.853 110.576 140.115 110.576 132.868 110.576C132.868 99.7841 132.868 89.592 132.868 77.6012C118.977 88.9924 107.502 100.384 94.2155 108.178C84.5523 113.873 71.5675 117.77 60.6965 116.871C54.0531 116.271 44.9939 106.079 42.8801 98.585C41.3702 92.8894 47.7117 82.6973 53.4492 78.5005C57.3748 75.8026 68.2458 78.2008 72.7754 82.3975C76.3991 85.3952 74.5873 94.3883 75.1912 100.683C73.0774 100.983 71.2656 101.583 69.1518 101.883C66.736 97.386 64.0182 93.1892 60.0926 86.2945C57.3748 90.4913 52.8452 95.8871 53.7511 97.386C56.7709 101.883 62.2064 108.178 65.83 107.878C74.2853 106.979 83.6464 103.981 90.8938 99.1846C101.161 92.8894 109.918 84.1961 120.185 76.1024C102.067 71.9056 86.0622 67.7089 70.0576 64.7112C65.83 63.8119 60.6965 66.5098 56.1669 68.0086C40.4644 73.4045 24.4598 78.8003 5.73751 85.0954C6.64343 75.5029 6.94537 71.0063 7.54932 65.011C34.7269 70.107 54.3551 57.8165 73.6814 42.5283C95.4234 25.4415 119.581 18.5468 146.759 30.5376C150.382 32.0364 156.12 29.0387 160.347 25.7413C139.209 10.4531 116.863 7.75515 93.9135 16.4484C80.6267 21.5445 67.9438 29.6383 55.8649 37.4322C39.2564 47.9241 21.742 53.9195 0 50.622C0.905918 45.2262 1.81186 40.4299 2.71778 35.3339C3.6237 36.5329 4.22761 38.0318 5.13353 39.2309C20.2322 34.1348 36.8407 31.4369 50.4294 23.6429C105.086 -9.33169 144.947 -8.43237 199 30.2378ZM165.783 53.32C159.14 48.5237 154.006 44.9265 152.194 43.7274C142.229 49.1232 134.076 57.217 128.036 56.0179C119.883 54.2193 113.24 45.2262 103.577 37.1325C98.1411 40.4299 89.3839 46.1255 79.4188 52.4207C106.294 67.1093 134.982 67.4091 165.783 53.32Z" fill="#9A2EA9"/>
</svg>
