<svg width="233" height="229" viewBox="0 0 233 229" fill="none" xmlns="http://www.w3.org/2000/svg">
<path d="M126.726 208.607C122.708 215.526 119.056 221.717 115.039 229C110.657 221.717 107.005 215.89 103.353 210.063C71.9451 216.254 24.4686 182.387 23.0078 151.432C16.0689 149.611 8.76489 147.426 0 144.877C5.11285 139.415 9.86046 134.316 15.7037 128.49C-4.52771e-05 115.016 1.826 100.449 10.5909 84.4255C13.8777 78.963 14.9733 72.0438 16.0689 65.4888C18.9906 49.4654 25.1991 36.7195 45.6505 35.2628C44.9201 26.1587 44.1897 18.147 43.8245 8.6786C51.1285 12.6844 57.337 16.3261 65.0062 20.332C73.4059 -0.78977 90.2053 -1.88226 108.831 1.39525C114.674 2.48775 120.882 1.39526 126.726 0.666924C143.16 -1.51808 157.038 1.03109 164.342 20.6961C172.011 16.6903 178.585 13.0486 186.619 8.6786C185.523 16.6903 184.793 23.2453 184.063 30.1645C219.122 46.1878 236.287 100.085 213.279 130.675C218.757 134.316 224.966 138.322 233 143.785C222.044 146.698 214.74 148.883 207.436 150.704C200.132 182.751 155.212 215.89 126.726 208.607ZM173.837 95.7146C177.124 101.177 181.506 105.547 182.237 110.646C184.063 126.305 193.923 125.212 204.514 122.299C216.931 119.021 222.774 110.646 219.122 97.5355C214.74 82.6046 209.992 67.6737 204.514 53.107C200.132 41.8178 190.636 37.812 179.315 42.5462C169.454 46.9162 161.055 50.922 164.342 66.5812C167.629 81.1479 174.202 82.2405 186.984 80.0555C185.523 73.1363 184.428 66.9454 183.332 60.7546C184.793 60.3904 186.254 60.0262 187.35 59.2979C192.097 73.5004 197.21 87.703 201.958 101.541C200.497 102.27 199.036 102.634 197.94 103.362C195.019 97.8997 192.097 92.4371 188.445 85.8821C182.602 89.888 178.219 92.8013 173.837 95.7146ZM50.0329 135.409C22.6426 153.253 23.0078 166.727 49.3025 182.022C58.0674 187.121 65.3714 194.404 73.7711 200.595C84.362 208.607 94.5878 207.514 101.892 196.589C108.466 187.121 115.404 176.56 98.605 168.548C94.2226 166.363 90.9357 161.629 86.5532 157.259C81.0752 161.993 76.3276 166.363 70.8495 171.097C77.058 176.56 81.8056 180.566 86.188 184.936C85.4576 186.028 84.7273 187.121 83.9969 188.213C72.3104 180.566 60.6238 172.554 48.9373 164.906C49.6677 163.814 50.0329 162.721 50.7633 161.265C55.8762 163.086 60.989 165.271 66.8323 167.456C69.0235 160.537 70.4843 154.71 72.3103 148.883C65.3714 144.513 58.4325 140.143 50.0329 135.409ZM43.4592 78.963C44.92 80.4196 46.0157 81.8763 47.4765 83.333C52.9546 79.6913 60.2586 76.7779 62.815 71.6796C69.7539 58.5696 65.3715 48.3729 50.7633 44.0028C35.79 39.6328 27.7555 46.552 23.7382 60.3904C21.1818 69.8587 17.895 78.9629 16.0689 88.4313C14.6081 97.8996 10.5908 110.646 15.3385 116.472C20.4513 123.391 33.5987 124.12 42.7288 127.397C48.2068 114.287 51.8589 105.183 55.8761 94.9863C50.7633 92.4371 46.0157 89.888 40.1724 86.9746C36.8856 93.5296 34.3291 98.2638 32.1379 103.362C30.6771 102.998 29.5814 102.27 28.1206 101.906C32.1379 89.1597 35.79 76.4138 39.8072 64.0321C40.9028 64.3962 42.3636 64.7604 43.4592 65.1246C43.4592 69.1304 43.4592 74.2288 43.4592 78.963ZM141.699 157.623C137.682 161.993 135.125 166.363 131.839 167.82C115.404 175.467 119.056 185.664 127.456 196.589C137.317 208.971 147.908 206.422 158.498 196.953C165.437 191.127 172.011 184.936 179.68 180.202C204.879 165.635 205.245 151.432 180.045 135.773C172.376 140.143 164.707 144.513 155.942 149.247C158.133 155.438 160.324 161.265 162.516 168.184C169.455 163.814 174.567 160.536 179.68 157.259C180.411 158.716 181.506 159.808 182.237 161.265C169.82 170.369 157.403 179.473 145.351 188.577C144.255 187.121 143.16 185.664 142.064 184.207C147.908 180.566 153.751 176.56 161.055 171.826C151.925 165.635 147.177 161.993 141.699 157.623ZM153.751 45.4595C153.751 35.627 157.403 23.2453 152.655 16.3261C148.638 10.1353 135.491 9.77108 125.995 8.31441C115.404 6.85774 104.448 7.22195 93.4921 7.22195C79.9796 7.22195 73.0407 14.5053 73.4059 27.2512C73.7711 38.1762 74.5015 50.1937 91.6661 45.4595C95.6833 44.367 100.796 46.9162 105.909 47.6445C108.1 41.8178 109.561 37.0837 111.752 31.257C104.448 30.1645 98.9701 29.4362 93.4921 28.7078C93.4921 27.6153 93.4921 26.5228 93.8573 25.4303C108.465 25.4303 122.708 25.4303 137.317 25.4303C137.317 26.1587 137.317 27.2512 137.317 27.9795C131.108 29.072 124.9 30.1645 117.596 31.6212C120.517 37.812 122.708 42.5462 124.534 46.9162C133.665 46.552 141.699 46.1879 153.751 45.4595ZM91.6661 100.813C91.6661 103.726 91.301 106.64 91.301 109.553C98.9702 115.38 105.909 124.848 114.309 126.305C126.36 128.49 136.586 118.657 134.395 106.64C132.934 98.9921 123.074 87.703 116.135 86.9746C108.465 86.2463 99.7006 95.7147 91.6661 100.813ZM136.221 126.305C146.081 140.507 156.672 144.149 168.724 135.773C178.95 128.49 181.506 117.929 173.472 107.368C165.437 96.8072 155.942 94.258 141.334 105.911C150.099 110.281 156.307 113.195 164.707 117.201C163.976 119.386 161.42 125.212 159.229 131.403C158.133 131.039 157.403 130.675 156.307 130.675C155.942 127.761 155.577 124.848 155.212 121.206C148.638 123.027 143.525 124.484 136.221 126.305ZM109.561 81.8763C113.578 63.3038 107.37 54.5637 94.5878 52.0145C82.1708 49.4654 73.0407 56.0204 70.4843 68.4021C67.9279 81.5121 74.5015 89.5238 92.3965 93.5297C88.7445 83.333 85.8228 76.4138 82.536 67.6737C85.4576 66.2171 90.2053 63.6679 95.3181 61.1187C94.5877 62.9395 93.4922 64.7604 92.7617 66.9454C97.1442 71.3154 102.257 75.3213 109.561 81.8763ZM138.047 89.5238C140.238 90.6163 142.429 91.7088 144.621 93.1655C155.942 86.9746 164.342 78.5988 157.403 63.6679C151.56 51.2862 140.603 48.0087 128.552 54.5637C119.056 59.6621 115.039 68.0379 121.978 83.6971C128.917 74.9571 133.299 69.8587 138.777 62.9395C141.334 64.7604 146.812 69.1304 152.29 73.8646C150.464 73.8646 148.273 73.5004 146.447 73.5004C143.89 78.5988 140.969 84.0613 138.047 89.5238ZM95.6833 123.756C84.362 125.212 77.7884 125.941 68.2931 127.397C67.5626 125.576 65.7367 118.657 63.5454 112.102C65.3715 113.559 66.8323 114.651 68.6583 116.108C74.5015 112.466 80.3448 109.189 90.5705 103.362C70.8495 96.443 58.7977 99.3563 55.5109 113.195C54.0501 120.478 58.4325 132.86 64.2758 137.23C74.5015 144.513 85.4576 140.143 95.6833 123.756ZM104.813 133.224C91.3009 144.513 90.9357 156.531 102.622 163.45C109.196 167.092 121.978 166.727 128.186 162.721C138.777 155.438 138.047 143.785 126.726 128.49C123.804 139.415 121.978 145.97 119.422 155.074C117.961 155.074 111.387 155.074 109.196 155.074C107.37 145.97 105.909 139.415 104.813 133.224Z" fill="#8CC64E"/>
</svg>
