<svg width="289" height="457" viewBox="0 0 289 457" fill="none" xmlns="http://www.w3.org/2000/svg">
<rect x="0.75" y="0.75" width="287.5" height="455.5" fill="#9A2EA9" stroke="#9A2EA9" stroke-width="1.5"/>
<rect x="17.75" y="65.75" width="255.5" height="374.5" fill="#17031A" stroke="#17031A" stroke-width="1.5"/>
<path d="M170.035 344.106C177.335 340.833 181.947 338.783 186.558 336.734L186.565 336.73C186.828 336.993 187.024 337.255 187.221 337.517C187.325 337.656 187.428 337.794 187.542 337.932L170.035 344.106ZM170.035 344.106C170.028 344.195 170.022 344.284 170.016 344.374L169.517 344.338L169.312 343.882C169.394 343.845 169.476 343.809 169.557 343.772C170.015 337.261 170.292 331.663 170.554 326.369C170.724 322.93 170.888 319.618 171.091 316.268C188.139 312.07 202.565 305.774 203.614 286.36C204.913 265.311 188.968 259.449 172.097 254.241C172.088 254.259 172.08 254.278 172.072 254.296L171.615 254.092L170.035 344.106ZM162.13 255.902L162.944 255.973L162.636 255.216C158 243.811 148.519 237.607 139.299 231.574C138.73 231.201 138.162 230.83 137.596 230.457C127.98 224.131 118.973 217.645 115.859 205.272H116.035H116.238H116.44H116.643H116.846H117.049H117.251H117.454H117.656H117.859H118.062H118.264H118.467H118.669H118.871H119.074H119.276H119.479H119.681H119.883H120.086H120.288H120.49H120.693H120.895H121.097H121.299H121.501H121.704H121.906H122.108H122.31H122.512H122.714H122.916H123.118H123.32H123.522H123.724H123.926H124.128H124.33H124.532H124.734H124.935H125.137H125.339H125.541H125.743H125.944H126.146H126.348H126.549H126.751H126.953H127.154H127.356H127.558H127.759H127.961H128.162H128.364H128.565H128.767H128.968H129.17H129.371H129.573H129.774H129.976H130.177H130.378H130.58H130.781H130.982H131.184H131.385H131.586H131.787H131.989H132.19H132.391H132.592H132.793H132.995H133.196H133.397H133.598H133.799H134H134.201H134.402H134.603H134.804H135.005H135.206H135.407H135.608H135.809H136.01H136.211H136.412H136.613H136.814H137.015H137.216H137.417H137.618H137.818H138.019H138.22H138.421H138.622H138.822H139.023H139.224H139.425H139.625H139.826H140.027H140.228H140.428H140.629H140.83H141.03H141.231H141.431H141.632H141.833H142.033H142.234H142.435H142.635H142.836H143.036H143.237H143.437H143.638H143.838H144.039H144.239H144.44H144.64H144.841H145.041H145.242H145.442H145.643H145.843H146.043H146.244H146.444H146.645H146.845H147.046H147.246H147.446H147.647H147.847H148.047H148.248H148.448H148.648H148.849H149.049H149.249H149.45H149.65H149.85H150.051H150.251H150.451H150.651H150.852H151.052H151.252H151.452H151.653H151.853H152.053H152.253H152.454H152.654H152.854H153.054H153.254H153.455H153.655H153.855H154.055H154.255H154.456H154.656H154.856H155.056H155.256H155.456H155.657H155.857H156.057H156.257H156.457H156.657H156.858H157.058H157.258H157.458H157.658H157.858H158.058H158.259H158.459H158.659H158.859H159.059H159.259H159.459H159.66H159.86H160.06H160.26H160.46H160.66H160.86H161.06H161.261H161.461H161.661H161.861H162.061H162.261H162.461H162.662H162.862H163.062H163.262H163.462H163.662H163.862H164.062H164.263H164.463H164.663H164.863H165.063H165.263H165.464H165.664H165.864H166.064H166.264H166.464H166.664H166.865H167.065H167.265H167.465H167.665H167.866H168.066H168.266H168.466H168.666H168.867H169.067H169.267H169.467H169.667H169.868H170.068H170.268H170.468H170.669H170.869H171.069H171.269H171.47H171.67H171.87H172.071H172.271H172.471H172.671H172.872H173.072H173.272H173.473H173.673H173.873H174.074H174.274H174.475H174.675H174.875H175.076H175.276H175.476H175.677H175.877H176.078H176.278H176.479H176.679H176.88H177.08H177.28H177.481H177.681H177.882H178.082H178.283H178.483H178.684H178.885H179.085H179.286H179.486H179.687H179.887H180.088H180.289H180.489H180.69H180.891H181.091H181.292H181.493H181.693H181.894H182.095H182.295H182.496H182.697H182.898H183.098H183.299H183.5H183.701H183.902H184.102H184.303H184.504H184.705H184.906H185.107H185.308H185.509H185.709H185.91H186.111H186.312H186.513H186.714H186.915H187.116H187.317H187.518H187.719H187.921H188.122H188.323H188.524H188.725H188.926H189.127H189.328H189.53H189.731H189.932H190.133H190.335H190.536H190.737H190.938H191.14H191.341H191.542H191.744H191.945H192.147H192.348H192.549H192.751H192.952H193.154H193.355H193.557H193.758H193.96H194.161H194.363H194.565H194.766H194.968H195.17H195.371H195.573H195.775H195.976H196.178H196.38H196.582H196.783H196.985H197.187H197.389H197.591H197.793H197.995H198.197H198.399H198.6H198.802H199.004H199.207H199.409H199.611H199.813H200.015H200.217H200.419H200.621H200.824H201.026H201.228H201.43H201.633H201.835H202.037H202.239H202.442H202.644H202.847H203.049H203.252H203.454H203.657H203.859H204.062H204.264H204.467H204.669H204.872H205.075H205.277H205.48H205.683H205.886H206.088H206.291H206.494H206.697H206.9H207.103H207.305H207.508H207.711H207.914H208.117H208.32H208.523H208.727H208.93H209.133H209.336H209.539H209.742H209.946H210.149H210.352H210.556H210.759H210.962H211.166H211.369H211.573H211.776H211.98H212.183H212.387H212.59H212.794H212.997H213.201H213.405H213.609H213.812H214.016H214.22H214.424H214.628H214.831H215.035H215.239H215.443H215.647H215.851H216.055H216.259H216.464H216.668H216.872H217.076H217.28H217.485H217.678C214.816 217.519 205.938 224.065 196.358 230.292C195.546 230.819 194.729 231.345 193.911 231.871C184.955 237.63 175.792 243.522 171.159 253.888L170.928 254.404L171.468 254.57C180.007 257.198 188.243 259.93 194.19 264.618C200.092 269.27 203.761 275.867 203.115 286.33L203.115 286.334C202.598 295.897 198.798 302.189 193.047 306.624C187.266 311.082 179.485 313.686 170.971 315.782L170.614 315.87L170.591 316.237C170.388 319.6 170.224 322.915 170.054 326.356C169.785 331.796 169.5 337.551 169.018 344.303L168.959 345.136L169.721 344.794C177.151 341.463 181.828 339.383 186.441 337.333C186.573 337.487 186.693 337.646 186.821 337.817L186.828 337.826C186.928 337.959 187.033 338.1 187.151 338.244C186.429 338.823 185.701 339.407 184.96 340C180.448 343.619 175.485 347.598 168.686 352.862L168.261 353.191L168.62 353.592C173.033 358.515 177.56 363.333 181.979 368.036C184.121 370.316 186.239 372.569 188.305 374.795H188.285H188.201H188.117H188.034H187.95H187.866H187.782H187.699H187.615H187.531H187.447H187.363H187.279H187.195H187.111H187.027H186.942H186.858H186.774H186.69H186.605H186.521H186.436H186.352H186.267H186.183H186.098H186.014H185.929H185.844H185.76H185.675H185.59H185.505H185.42H185.335H185.251H185.166H185.081H184.995H184.91H184.825H184.74H184.655H184.57H184.484H184.399H184.314H184.228H184.143H184.057H183.972H183.886H183.801H183.715H183.629H183.544H183.458H183.372H183.286H183.201H183.115H183.029H182.943H182.857H182.771H182.685H182.599H182.513H182.427H182.341H182.254H182.168H182.082H181.995H181.909H181.823H181.736H181.65H181.563H181.477H181.39H181.304H181.217H181.131H181.044H180.957H180.87H180.784H180.697H180.61H180.523H180.436H180.349H180.262H180.175H180.088H180.001H179.914H179.827H179.74H179.653H179.566H179.478H179.391H179.304H179.216H179.129H179.042H178.954H178.867H178.779H178.692H178.604H178.517H178.429H178.341H178.254H178.166H178.078H177.99H177.903H177.815H177.727H177.639H177.551H177.463H177.375H177.287H177.199H177.111H177.023H176.935H176.847H176.759H176.67H176.582H176.494H176.406H176.317H176.229H176.141H176.052H175.964H175.875H175.787H175.698H175.61H175.521H175.433H175.344H175.256H175.167H175.078H174.99H174.901H174.812H174.723H174.634H174.546H174.457H174.368H174.279H174.19H174.101H174.012H173.923H173.834H173.745H173.656H173.567H173.478H173.388H173.299H173.21H173.121H173.031H172.942H172.853H172.763H172.674H172.585H172.495H172.406H172.316H172.227H172.137H172.048H171.958H171.869H171.779H171.69H171.6H171.51H171.421H171.331H171.241H171.151H171.062H170.972H170.882H170.792H170.702H170.612H170.522H170.432H170.343H170.253H170.163H170.073H169.983H169.892H169.802H169.712H169.622H169.532H169.442H169.352H169.261H169.171H169.081H168.991H168.9H168.81H168.72H168.629H168.539H168.449H168.358H168.268H168.177H168.087H167.997H167.906H167.816H167.725H167.634H167.544H167.453H167.363H167.272H167.181H167.091H167H166.909H166.819H166.728H166.637H166.546H166.456H166.365H166.274H166.183H166.092H166.001H165.91H165.82H165.729H165.638H165.547H165.456H165.365H165.274H165.183H165.092H165.001H164.91H164.819H164.727H164.636H164.545H164.454H164.363H164.272H164.18H164.089H163.998H163.907H163.816H163.724H163.633H163.542H163.45H163.359H163.268H163.176H163.085H162.994H162.902H162.811H162.719H162.628H162.537H162.445H162.354H162.262H162.171H162.079H161.988H161.896H161.804H161.713H161.621H161.53H161.438H161.346H161.255H161.163H161.072H160.98H160.888H160.797H160.705H160.613H160.521H160.43H160.338H160.246H160.154H160.063H159.971H159.879H159.787H159.695H159.604H159.512H159.42H159.328H159.236H159.144H159.052H158.961H158.869H158.777H158.685H158.593H158.501H158.409H158.317H158.225H158.133H158.041H157.949H157.857H157.765H157.673H157.581H157.489H157.397H157.305H157.213H157.121H157.029H156.936H156.844H156.752H156.66H156.568H156.476H156.384H156.292H156.199H156.107H156.015H155.923H155.831H155.739H155.646H155.554H155.462H155.37H155.278H155.185H155.093H155.001H154.909H154.816H154.724H154.632H154.54H154.447H154.355H154.263H154.171H154.078H153.986H153.894H153.801H153.709H153.617H153.525H153.432H153.34H153.248H153.155H153.063H152.971H152.878H152.786H152.694H152.601H152.509H152.417H152.324H152.232H152.139H152.047H151.955H151.862H151.77H151.678H151.585H151.493H151.401H151.308H151.216H151.123H151.031H150.939H150.846H150.754H150.661H150.569H150.477H150.384H150.292H150.199H150.107H150.015H149.922H149.83H149.737H149.645H149.553H149.46H149.368H149.275H149.183H149.091H148.998H148.906H148.813H148.721H148.629H148.536H148.444H148.351H148.259H148.167H148.074H147.982H147.889H147.797H147.705H147.612H147.52H147.428H147.335H147.243H147.15H147.058H146.966H146.873H146.781H146.689H146.596H146.504H146.412H146.319H146.227H146.134H146.042H145.95H145.857H145.765H145.673H145.58H145.488H145.396H145.304H145.211H145.119H145.027H144.934H144.842H144.75H144.724C150.813 368.453 157.624 361.39 165.155 353.605L165.572 353.174L165.073 352.842C162.62 351.206 160.377 349.847 158.345 348.615C157.438 348.066 156.572 347.541 155.749 347.029C153.068 345.361 150.813 343.811 148.888 341.886C139.887 332.884 140.473 317.02 151.15 310.663L151.154 310.661C155.537 308.004 158.25 305.179 159.682 301.839C161.111 298.504 161.231 294.725 160.569 290.223L160.569 290.22C160.051 286.851 159.985 283.409 160.05 279.91C160.076 278.53 160.122 277.134 160.169 275.73C160.24 273.596 160.312 271.445 160.312 269.308V268.9L159.913 268.818C156.459 268.11 152.904 267.493 149.298 266.868C142.16 265.63 134.825 264.358 127.696 262.271C88.5958 250.277 66.9951 212.233 76.8887 174.993L76.8888 174.993C88.3324 131.81 144.271 115.674 177.044 146.372L177.045 146.373C182.811 151.747 187.998 157.139 191.168 163.448C194.266 169.614 195.448 176.681 193.292 185.505C182.087 181.821 173.893 175.153 172.636 165.096L172.635 165.092C171.572 157.116 168.502 151.871 164.018 148.431C159.553 145.006 153.744 143.417 147.285 142.625C128.784 140.247 111.801 145.536 100.394 161.191L100.393 161.193C87.951 178.403 86.8984 197.485 95.6224 216.523L95.6223 216.523L95.627 216.533C108.586 243.251 131.874 253.271 162.13 255.902ZM169.389 352.951C169.381 352.942 169.373 352.933 169.365 352.924L168.992 353.258L169.298 353.653C169.308 353.646 169.318 353.638 169.327 353.631C173.63 358.42 178.032 363.105 182.337 367.686C184.59 370.084 186.816 372.454 188.987 374.795L169.389 352.951ZM164.442 353.623C164.468 353.64 164.493 353.657 164.518 353.674L164.796 353.258L164.436 352.91C164.415 352.932 164.393 352.954 164.372 352.977C162.094 351.472 160.008 350.208 158.097 349.05C154.249 346.718 151.11 344.816 148.534 342.239C139.354 333.057 139.879 316.792 150.895 310.234C159.55 304.987 161.386 299.215 160.075 290.296C159.341 285.528 159.505 280.632 159.67 275.697C159.741 273.572 159.812 271.44 159.812 269.308C156.39 268.606 152.85 267.992 149.252 267.368C142.095 266.126 134.707 264.845 127.551 262.75C88.2084 250.682 66.4387 212.38 76.4055 174.865C87.9461 131.316 144.337 115.051 177.385 146.007L164.442 353.623ZM173.739 268.547L173.213 268.52V269.046V269.114V269.181V269.249V269.316V269.384V269.452V269.519V269.587V269.654V269.722V269.79V269.857V269.925V269.992V270.06V270.127V270.195V270.262V270.33V270.397V270.465V270.533V270.6V270.668V270.735V270.803V270.87V270.938V271.005V271.072V271.14V271.207V271.275V271.342V271.41V271.477V271.545V271.612V271.68V271.747V271.815V271.882V271.949V272.017V272.084V272.152V272.219V272.287V272.354V272.421V272.489V272.556V272.624V272.691V272.758V272.826V272.893V272.961V273.028V273.095V273.163V273.23V273.297V273.365V273.432V273.5V273.567V273.634V273.702V273.769V273.836V273.904V273.971V274.038V274.106V274.173V274.24V274.308V274.375V274.442V274.51V274.577V274.645V274.712V274.779V274.847V274.914V274.981V275.049V275.116V275.183V275.251V275.318V275.385V275.452V275.52V275.587V275.654V275.722V275.789V275.856V275.924V275.991V276.058V276.126V276.193V276.26V276.328V276.395V276.462V276.53V276.597V276.664V276.732V276.799V276.866V276.934V277.001V277.068V277.136V277.203V277.27V277.338V277.405V277.472V277.54V277.607V277.674V277.742V277.809V277.877V277.944V278.011V278.079V278.146V278.213V278.281V278.348V278.415V278.483V278.55V278.618V278.685V278.752V278.82V278.887V278.954V279.022V279.089V279.157V279.224V279.291V279.359V279.426V279.494V279.561V279.628V279.696V279.763V279.831V279.898V279.966V280.033V280.1V280.168V280.235V280.303V280.37V280.438V280.505V280.573V280.64V280.708V280.775V280.842V280.91V280.977V281.045V281.112V281.18V281.247V281.315V281.382V281.45V281.518V281.585V281.653V281.72V281.788V281.855V281.923V281.99V282.058V282.125V282.193V282.261V282.328V282.396V282.463V282.531V282.599V282.666V282.734V282.801V282.869V282.937V283.004V283.072V283.14V283.207V283.275V283.343V283.41V283.478V283.546V283.613V283.681V283.749V283.817V283.884V283.952V284.02V284.088V284.155V284.223V284.291V284.359V284.426V284.494V284.562V284.63V284.698V284.765V284.833V284.901V284.969V285.037V285.105V285.173V285.24V285.308V285.376V285.444V285.512V285.58V285.648V285.716V285.784V285.852V285.92V285.988V286.056V286.124V286.192V286.26V286.328V286.396V286.464V286.532V286.6V286.668V286.736V286.804V286.872V286.94V287.008V287.076V287.145V287.213V287.281V287.349V287.417V287.485V287.554V287.622V287.69V287.758V287.826V287.895V287.963V288.031V288.099V288.168V288.236V288.304V288.373V288.441V288.509V288.578V288.646V288.714V288.783V288.851V288.919V288.988V289.056V289.125V289.193V289.262V289.33V289.399V289.467V289.536V289.604V289.673V289.741V289.81V289.878V289.947V290.015V290.084V290.153V290.221V290.29V290.359V290.427V290.496V290.565V290.633V290.702V290.771V290.839V290.908V290.977V291.046V291.114V291.183V291.252V291.321V291.39V291.459V291.527V291.596V291.665V291.734V291.803V291.872V291.941V292.01V292.079V292.148V292.217V292.286V292.355V292.424V292.493V292.562V292.631V292.7V292.769V292.839V292.908V292.977V293.046V293.115V293.184V293.254V293.323V293.392V293.461V293.531V293.6V293.669V293.739V293.808V293.877V293.947V294.016V294.085V294.155V294.224V294.294V294.363V294.433V294.502V294.572V294.641V294.711V294.78V294.85V294.92V294.989V295.059V295.128V295.198V295.268V295.337V295.407V295.477V295.547V295.616V295.686V295.756V295.826V295.896V295.965V296.035V296.105V296.175V296.245V296.315V296.385V296.455V296.525V296.595V296.665V296.735V296.805V296.875V296.945V297.015V297.085V297.156V297.226V297.296V297.366V297.436V297.507V297.577V297.647V297.717V297.788V297.858V297.928V297.999V298.069V298.14V298.21V298.28V298.351V298.421V298.492V298.562V298.633V298.703V298.774V298.845V298.915V298.986V299.057V299.127V299.198V299.269V299.339V299.41V299.481V299.552V299.623V299.693V299.764V299.835V299.906V299.977V300.048V300.119V300.19V300.261V300.332V300.403V300.474V300.545V300.616V300.687V300.758V300.83V300.901V300.972V301.043V301.115V301.186V301.257V301.328V301.4V301.471V301.543V301.614V301.685V301.757V301.828V301.9V301.971V302.043V302.114V302.186V302.258V302.329V302.401V302.473V302.544V302.616V302.688V302.76V302.831V302.903V302.975V303.047V303.119V303.191V303.263V303.335V303.406V303.478V303.55V303.623V303.695V303.767V303.839V303.911V303.983V304.055V304.128V304.2V304.81L173.812 304.69C179.76 303.5 184.652 301.439 187.994 298.231C191.354 295.006 193.104 290.664 192.835 285.025C192.567 279.387 190.41 275.374 186.969 272.716C183.548 270.073 178.91 268.812 173.739 268.547ZM163.197 314.406L163.145 313.366L162.366 314.057C158.876 317.152 156.283 319.924 154.593 322.472C152.902 325.021 152.091 327.384 152.232 329.645C152.372 331.914 153.464 333.996 155.405 335.993C157.341 337.983 160.144 339.914 163.769 341.891L164.563 342.324L164.508 341.422C164.188 336.145 163.966 331.165 163.723 325.701C163.567 322.203 163.402 318.506 163.197 314.406Z" stroke="#9A2EA9"/>
</svg>
